<svg width="51" height="56" viewBox="0 0 51 56" fill="none" xmlns="http://www.w3.org/2000/svg">
<g clip-path="url(#clip0_372_157)">
<mask id="mask0_372_157" style="mask-type:luminance" maskUnits="userSpaceOnUse" x="0" y="0" width="51" height="56">
<path d="M0.134766 1.90735e-05H50.8348V55.9623H0.134766V1.90735e-05Z" fill="white"/>
</mask>
<g mask="url(#mask0_372_157)">
<path d="M28.2305 8.45449C28.2305 10.0106 26.9689 11.2722 25.4127 11.2722C23.8563 11.2722 22.5947 10.0106 22.5947 8.45449C22.5947 6.89835 23.8563 5.63677 25.4127 5.63677C26.9689 5.63677 28.2305 6.89835 28.2305 8.45449Z" fill="#074431"/>
<path d="M19.7534 8.45449C19.7534 10.0106 18.4918 11.2722 16.9357 11.2722C15.3793 11.2722 14.1177 10.0106 14.1177 8.45449C14.1177 6.89835 15.3793 5.63677 16.9357 5.63677C18.4918 5.63677 19.7534 6.89835 19.7534 8.45449Z" fill="#074431"/>
<path d="M36.6797 8.45449C36.6797 10.0106 35.4181 11.2722 33.862 11.2722C32.3055 11.2722 31.0439 10.0106 31.0439 8.45449C31.0439 6.89835 32.3055 5.63677 33.862 5.63677C35.4181 5.63677 36.6797 6.89835 36.6797 8.45449Z" fill="#074431"/>
<path d="M28.2305 16.8766C28.2305 18.4328 26.9689 19.6943 25.4127 19.6943C23.8563 19.6943 22.5947 18.4328 22.5947 16.8766C22.5947 15.3205 23.8563 14.0589 25.4127 14.0589C26.9689 14.0589 28.2305 15.3205 28.2305 16.8766Z" fill="#074431"/>
<path d="M19.7534 16.8766C19.7534 18.4328 18.4918 19.6943 16.9357 19.6943C15.3793 19.6943 14.1177 18.4328 14.1177 16.8766C14.1177 15.3205 15.3793 14.0589 16.9357 14.0589C18.4918 14.0589 19.7534 15.3205 19.7534 16.8766Z" fill="#074431"/>
<path d="M33.8617 14.0587C32.3055 14.0587 31.0439 15.3203 31.0439 16.8764C31.0439 18.4329 32.3055 19.6945 33.8617 19.6945C35.4178 19.6945 36.6794 18.4329 36.6794 16.8764C36.6794 15.3203 35.4178 14.0587 33.8617 14.0587ZM33.8617 14.351C35.2542 14.351 36.3872 15.4839 36.3872 16.8764C36.3872 18.2692 35.2542 19.4022 33.8617 19.4022C32.4692 19.4022 31.3362 18.2692 31.3362 16.8764C31.3362 15.4839 32.4692 14.351 33.8617 14.351Z" fill="#074431"/>
<path d="M25.4124 22.5159C23.8563 22.5159 22.5947 23.7774 22.5947 25.3336C22.5947 26.89 23.8563 28.1516 25.4124 28.1516C26.9686 28.1516 28.2302 26.89 28.2302 25.3336C28.2302 23.7774 26.9686 22.5159 25.4124 22.5159ZM25.4124 22.8081C26.8049 22.8081 27.9379 23.9411 27.9379 25.3336C27.9379 26.7264 26.8049 27.8594 25.4124 27.8594C24.02 27.8594 22.887 26.7264 22.887 25.3336C22.887 23.9411 24.02 22.8081 25.4124 22.8081Z" fill="#074431"/>
<path d="M19.7534 25.3338C19.7534 26.8899 18.4918 28.1515 16.9357 28.1515C15.3793 28.1515 14.1177 26.8899 14.1177 25.3338C14.1177 23.7776 15.3793 22.516 16.9357 22.516C18.4918 22.516 19.7534 23.7776 19.7534 25.3338Z" fill="#074431"/>
<path d="M33.8617 22.5159C32.3055 22.5159 31.0439 23.7774 31.0439 25.3336C31.0439 26.89 32.3055 28.1516 33.8617 28.1516C35.4178 28.1516 36.6794 26.89 36.6794 25.3336C36.6794 23.7774 35.4178 22.5159 33.8617 22.5159Z" fill="#074431"/>
</g>
<path d="M7.95892 48.7059C8.20313 48.7059 8.42559 48.6842 8.62631 48.6407C8.82702 48.5972 8.99763 48.527 9.13813 48.4299C9.28198 48.3329 9.39238 48.2058 9.46932 48.0486C9.54626 47.888 9.58473 47.6906 9.58473 47.4565H8.6815C8.6815 47.5401 8.65976 47.607 8.61627 47.6572C8.57278 47.704 8.51591 47.7408 8.44566 47.7676C8.37876 47.791 8.30181 47.8077 8.21484 47.8178C8.12786 47.8245 8.04088 47.8278 7.9539 47.8278C7.64279 47.8278 7.41197 47.7525 7.26143 47.602C7.11089 47.4481 7.03562 47.2039 7.03562 46.8694C7.03562 46.7021 7.04901 46.5599 7.07577 46.4428C7.10588 46.3224 7.15271 46.2237 7.21627 46.1468C7.27983 46.0698 7.36179 46.013 7.46215 45.9762C7.56585 45.9394 7.68963 45.921 7.83347 45.921C7.93383 45.921 8.03252 45.9277 8.12953 45.9411C8.22989 45.9511 8.31854 45.9728 8.39548 46.0063C8.47577 46.0364 8.53933 46.0782 8.58616 46.1317C8.63634 46.1853 8.66143 46.2538 8.66143 46.3375H9.56466C9.56466 46.1033 9.52619 45.9043 9.44925 45.7403C9.3723 45.5764 9.26024 45.4426 9.11305 45.3389C8.96585 45.2352 8.78521 45.1599 8.57111 45.1131C8.35701 45.0663 8.11113 45.0428 7.83347 45.0428C7.23132 45.0428 6.78473 45.1934 6.49369 45.4945C6.20265 45.7922 6.05713 46.2522 6.05713 46.8744C6.05713 47.4966 6.21268 47.9583 6.5238 48.2593C6.83491 48.5571 7.31328 48.7059 7.95892 48.7059Z" fill="#074431"/>
<path d="M9.79541 48.6307H10.814L12.1538 45.1182H11.1352L9.79541 48.6307ZM10.4829 48.1741H12.8413V47.3211H10.4829V48.1741ZM13.4936 48.6307L12.1538 45.1182H11.1352L12.475 48.6307H13.4936Z" fill="#074431"/>
<path d="M13.855 48.6307H14.8084V45.1182H13.855V48.6307Z" fill="#074431"/>
<path d="M15.521 48.6307H16.4744V45.1182H15.521V48.6307ZM17.1267 47.5268C17.4178 47.5268 17.6603 47.5017 17.8543 47.4515C18.0517 47.398 18.2089 47.3211 18.326 47.2207C18.4464 47.1203 18.5318 46.9949 18.5819 46.8444C18.6321 46.6938 18.6572 46.5199 18.6572 46.3225C18.6572 46.1251 18.6321 45.9512 18.5819 45.8006C18.5318 45.6501 18.4464 45.5246 18.326 45.4243C18.2089 45.3239 18.0517 45.2487 17.8543 45.1985C17.6603 45.145 17.4178 45.1182 17.1267 45.1182H15.521V45.9712H17.0916C17.2221 45.9712 17.3258 45.9796 17.4027 45.9963C17.483 46.0097 17.5432 46.0315 17.5834 46.0616C17.6235 46.0917 17.6486 46.1285 17.6586 46.172C17.672 46.2154 17.6787 46.2656 17.6787 46.3225C17.6787 46.3794 17.672 46.4295 17.6586 46.473C17.6486 46.5165 17.6235 46.5533 17.5834 46.5834C17.5432 46.6135 17.483 46.6369 17.4027 46.6537C17.3258 46.6671 17.2221 46.6737 17.0916 46.6737H15.521V47.5268H17.1267ZM17.3525 46.8745H16.1984L17.5031 48.6307H18.6572L17.3525 46.8745Z" fill="#074431"/>
<path d="M19.1689 46.8744C19.1689 47.4799 19.3161 47.9365 19.6105 48.2443C19.9083 48.552 20.3632 48.7059 20.9754 48.7059C21.5876 48.7059 22.0409 48.552 22.3353 48.2443C22.633 47.9365 22.7819 47.4799 22.7819 46.8744C22.7819 46.2689 22.633 45.8123 22.3353 45.5045C22.0409 45.1967 21.5876 45.0428 20.9754 45.0428C20.3632 45.0428 19.9083 45.1967 19.6105 45.5045C19.3161 45.8123 19.1689 46.2689 19.1689 46.8744ZM20.1474 46.8744C20.1474 46.5566 20.2093 46.3191 20.3331 46.1618C20.4569 46.0013 20.671 45.921 20.9754 45.921C21.2597 45.921 21.4688 46.0013 21.6026 46.1618C21.7365 46.3191 21.8034 46.5566 21.8034 46.8744C21.8034 47.1922 21.7365 47.4314 21.6026 47.592C21.4688 47.7492 21.2597 47.8278 20.9754 47.8278C20.691 47.8278 20.482 47.7492 20.3482 47.592C20.2143 47.4314 20.1474 47.1922 20.1474 46.8744Z" fill="#074431"/>
<path d="M24.9097 48.6307H25.8631V45.1182H24.9097V48.6307ZM26.5154 47.5268C26.8064 47.5268 27.049 47.5017 27.243 47.4515C27.4404 47.398 27.5976 47.3211 27.7147 47.2207C27.8351 47.1203 27.9204 46.9949 27.9706 46.8444C28.0208 46.6938 28.0459 46.5199 28.0459 46.3225C28.0459 46.1251 28.0208 45.9512 27.9706 45.8006C27.9204 45.6501 27.8351 45.5246 27.7147 45.4243C27.5976 45.3239 27.4404 45.2487 27.243 45.1985C27.049 45.145 26.8064 45.1182 26.5154 45.1182H24.9097V45.9712H26.4803C26.6107 45.9712 26.7144 45.9796 26.7914 45.9963C26.8717 46.0097 26.9319 46.0315 26.972 46.0616C27.0122 46.0917 27.0373 46.1285 27.0473 46.172C27.0607 46.2154 27.0674 46.2656 27.0674 46.3225C27.0674 46.3794 27.0607 46.4295 27.0473 46.473C27.0373 46.5165 27.0122 46.5533 26.972 46.5834C26.9319 46.6135 26.8717 46.6369 26.7914 46.6537C26.7144 46.6671 26.6107 46.6737 26.4803 46.6737H24.9097V47.5268H26.5154ZM26.7412 46.8745H25.5871L26.8917 48.6307H28.0459L26.7412 46.8745Z" fill="#074431"/>
<path d="M28.6577 48.6307H29.6111V45.1182H28.6577V48.6307Z" fill="#074431"/>
<path d="M31.3578 47.0852L32.2811 46.7691L31.2023 45.1182H30.0732L31.3578 47.0852ZM31.3277 48.6307H32.2811V46.7691H31.3277V48.6307ZM32.251 47.0852L33.5356 45.1182H32.4066L31.3277 46.7691L32.251 47.0852Z" fill="#074431"/>
<path d="M33.1685 48.6307H34.1871L35.5269 45.1182H34.5082L33.1685 48.6307ZM33.8559 48.1741H36.2143V47.3211H33.8559V48.1741ZM36.8667 48.6307L35.5269 45.1182H34.5082L35.848 48.6307H36.8667Z" fill="#074431"/>
<path d="M37.228 48.6307H38.1814V45.1182H37.228V48.6307ZM38.7083 48.6307C39.0127 48.6307 39.277 48.5939 39.5011 48.5203C39.7286 48.4467 39.9176 48.3364 40.0682 48.1892C40.2187 48.042 40.3308 47.8596 40.4044 47.6422C40.478 47.4214 40.5148 47.1655 40.5148 46.8745C40.5148 46.5834 40.478 46.3292 40.4044 46.1117C40.3308 45.891 40.2187 45.707 40.0682 45.5598C39.9176 45.4126 39.7286 45.3022 39.5011 45.2286C39.277 45.155 39.0127 45.1182 38.7083 45.1182H37.228V45.9712H38.7083C38.8488 45.9712 38.9709 45.9913 39.0746 46.0315C39.1783 46.0683 39.2636 46.1251 39.3305 46.2021C39.4008 46.2757 39.4526 46.3693 39.4861 46.4831C39.5195 46.5935 39.5363 46.7223 39.5363 46.8694C39.5363 47.02 39.5195 47.1521 39.4861 47.2659C39.4526 47.3796 39.4008 47.4749 39.3305 47.5519C39.2636 47.6255 39.1783 47.6823 39.0746 47.7225C38.9709 47.7593 38.8488 47.7777 38.7083 47.7777H37.228V48.6307H38.7083Z" fill="#074431"/>
<path d="M41.127 48.6307H42.0804V45.1182H41.127V48.6307ZM43.4352 48.6307H44.3886V45.1182H43.4352V48.6307ZM41.5284 47.301H43.8868V46.4479H41.5284V47.301Z" fill="#074431"/>
<path d="M14.7109 39.5325H11.072V37.583H16.9202V40.1433C16.9202 40.5939 16.8486 40.9945 16.7057 41.3455C16.5628 41.6965 16.3679 42.0039 16.121 42.2681C15.874 42.5326 15.5835 42.7535 15.2501 42.9309C14.9167 43.1086 14.5593 43.2538 14.1779 43.3663C13.7965 43.4791 13.3982 43.5612 12.9824 43.6133C12.5665 43.6653 12.155 43.6913 11.7477 43.6913C10.6994 43.6913 9.79847 43.6022 9.0445 43.4248C8.29083 43.2474 7.67568 42.9592 7.19904 42.5606C6.7227 42.1623 6.37173 41.6401 6.14642 40.9945C5.9211 40.3493 5.80859 39.5585 5.80859 38.6228C5.80859 37.6786 5.91906 36.8834 6.13999 36.2379C6.36092 35.5926 6.70546 35.0704 7.17303 34.6721C7.6409 34.2735 8.23414 33.9876 8.95362 33.8141C9.67281 33.6411 10.5302 33.5543 11.5267 33.5543C12.0379 33.5543 12.5057 33.5759 12.9303 33.6191C13.3547 33.6627 13.7644 33.7319 14.1586 33.8272C14.5528 33.9225 14.9427 34.0481 15.3281 34.2039C15.7136 34.36 16.1145 34.5508 16.5304 34.7761L15.1268 36.4784C14.7109 36.201 14.2191 35.9801 13.6516 35.8156C13.0841 35.651 12.4192 35.5686 11.6568 35.5686C11.0589 35.5686 10.541 35.6186 10.1039 35.718C9.66608 35.8179 9.30868 35.9845 9.03164 36.2186C8.75402 36.4524 8.54858 36.7642 8.41415 37.1543C8.28002 37.5441 8.2128 38.0336 8.2128 38.6228C8.2128 39.2032 8.28002 39.6906 8.41415 40.0848C8.54858 40.479 8.75402 40.7932 9.03164 41.027C9.30868 41.2611 9.66608 41.4279 10.1039 41.5273C10.541 41.6269 11.0589 41.6769 11.6568 41.6769C12.0379 41.6769 12.4105 41.6532 12.7746 41.6053C13.1384 41.558 13.4634 41.4756 13.7492 41.3584C14.035 41.2415 14.2667 41.0901 14.4444 40.9034C14.6218 40.7172 14.7109 40.4858 14.7109 40.2081V39.5325Z" fill="#074431"/>
<path d="M25.5888 37.7002C25.8658 37.7002 26.0867 37.6245 26.2516 37.4728C26.4161 37.3211 26.4985 37.0634 26.4985 36.6996C26.4985 36.3354 26.4161 36.078 26.2516 35.9263C26.0867 35.7746 25.8658 35.6987 25.5888 35.6987H20.4554V37.7002H25.5888ZM18.2461 33.7495H25.7188C26.2819 33.7495 26.756 33.8012 27.1417 33.9052C27.5272 34.0092 27.8413 34.1782 28.0839 34.4122C28.3264 34.646 28.5018 34.9514 28.6102 35.3284C28.7186 35.7054 28.7727 36.1624 28.7727 36.6996C28.7727 37.2279 28.7186 37.6806 28.6102 38.0576C28.5018 38.4346 28.3264 38.7399 28.0839 38.9737C27.8413 39.2075 27.5272 39.3788 27.1417 39.4872C26.756 39.5956 26.2819 39.6497 25.7188 39.6497H24.679L29.4226 43.4963H25.9137L21.6118 39.6497H20.4554V43.4963H18.2461V33.7495Z" fill="#074431"/>
<path d="M30.3579 33.7493H32.5672V43.4965H30.3579V33.7493Z" fill="#074431"/>
<path d="M41.1188 41.5468C41.3181 41.5468 41.5171 41.4864 41.7167 41.3648C41.9157 41.2435 42.0955 41.0641 42.2559 40.8256C42.4163 40.5874 42.5461 40.2841 42.6457 39.9159C42.7454 39.5477 42.7954 39.1166 42.7954 38.6227C42.7954 38.1289 42.7454 37.6981 42.6457 37.3296C42.5461 36.9614 42.4163 36.6584 42.2559 36.4199C42.0955 36.1817 41.9157 36.002 41.7167 35.8807C41.5171 35.7594 41.3181 35.6987 41.1188 35.6987H36.3624V41.5468H41.1188ZM34.1528 33.7492H41.2357C41.7988 33.7492 42.3146 33.836 42.7822 34.0092C43.2501 34.1825 43.6531 34.4619 43.9909 34.8474C44.329 35.2331 44.5932 35.7355 44.7837 36.355C44.9743 36.9745 45.0695 37.7306 45.0695 38.6227C45.0695 39.5065 44.9743 40.2584 44.7837 40.8776C44.5932 41.4972 44.329 42.0019 43.9909 42.3917C43.6531 42.7815 43.2501 43.0632 42.7822 43.2362C42.3146 43.4098 41.7988 43.4963 41.2357 43.4963H34.1528V33.7492Z" fill="#074431"/>
</g>
<defs>
<clipPath id="clip0_372_157">
<rect width="50.7" height="55.9623" fill="white" transform="translate(0.134766)"/>
</clipPath>
</defs>
</svg>
