<svg width="52" height="56" viewBox="0 0 52 56" fill="none" xmlns="http://www.w3.org/2000/svg">
<g clip-path="url(#clip0_372_109)">
<mask id="mask0_372_109" style="mask-type:luminance" maskUnits="userSpaceOnUse" x="0" y="0" width="52" height="56">
<path d="M0.43457 1.90735e-05H51.1346V55.9623H0.43457V1.90735e-05Z" fill="white"/>
</mask>
<g mask="url(#mask0_372_109)">
<path d="M28.5303 8.45449C28.5303 10.0106 27.2687 11.2722 25.7125 11.2722C24.1561 11.2722 22.8945 10.0106 22.8945 8.45449C22.8945 6.89835 24.1561 5.63677 25.7125 5.63677C27.2687 5.63677 28.5303 6.89835 28.5303 8.45449Z" fill="#7F7C7A"/>
<path d="M20.0532 8.45449C20.0532 10.0106 18.7916 11.2722 17.2355 11.2722C15.6791 11.2722 14.4175 10.0106 14.4175 8.45449C14.4175 6.89835 15.6791 5.63677 17.2355 5.63677C18.7916 5.63677 20.0532 6.89835 20.0532 8.45449Z" fill="#7F7C7A"/>
<path d="M36.9795 8.45449C36.9795 10.0106 35.7179 11.2722 34.1618 11.2722C32.6053 11.2722 31.3438 10.0106 31.3438 8.45449C31.3438 6.89835 32.6053 5.63677 34.1618 5.63677C35.7179 5.63677 36.9795 6.89835 36.9795 8.45449Z" fill="#7F7C7A"/>
<path d="M22.8945 25.3338C22.8945 23.7776 24.1561 22.516 25.7123 22.516C27.2687 22.516 28.5303 23.7776 28.5303 25.3338C28.5303 26.8899 27.2687 28.1515 25.7123 28.1515C24.1561 28.1515 22.8945 26.8899 22.8945 25.3338Z" fill="#7F7C7A"/>
<path d="M20.0532 16.8766C20.0532 18.4328 18.7916 19.6943 17.2355 19.6943C15.6791 19.6943 14.4175 18.4328 14.4175 16.8766C14.4175 15.3205 15.6791 14.0589 17.2355 14.0589C18.7916 14.0589 20.0532 15.3205 20.0532 16.8766Z" fill="#7F7C7A"/>
<path d="M34.1615 14.0587C32.6053 14.0587 31.3438 15.3203 31.3438 16.8764C31.3438 18.4329 32.6053 19.6945 34.1615 19.6945C35.7176 19.6945 36.9792 18.4329 36.9792 16.8764C36.9792 15.3203 35.7176 14.0587 34.1615 14.0587ZM34.1615 14.351C35.554 14.351 36.687 15.4839 36.687 16.8764C36.687 18.2692 35.554 19.4022 34.1615 19.4022C32.769 19.4022 31.636 18.2692 31.636 16.8764C31.636 15.4839 32.769 14.351 34.1615 14.351Z" fill="#7F7C7A"/>
<path d="M25.7123 19.6945C27.2684 19.6945 28.53 18.4329 28.53 16.8767C28.53 15.3203 27.2684 14.0587 25.7123 14.0587C24.1561 14.0587 22.8945 15.3203 22.8945 16.8767C22.8945 18.4329 24.1561 19.6945 25.7123 19.6945ZM25.7123 19.4022C24.3198 19.4022 23.1868 18.2692 23.1868 16.8767C23.1868 15.4839 24.3198 14.351 25.7123 14.351C27.1047 14.351 28.2377 15.4839 28.2377 16.8767C28.2377 18.2692 27.1047 19.4022 25.7123 19.4022Z" fill="#7F7C7A"/>
<path d="M20.0532 25.3338C20.0532 26.8899 18.7916 28.1515 17.2355 28.1515C15.6791 28.1515 14.4175 26.8899 14.4175 25.3338C14.4175 23.7776 15.6791 22.516 17.2355 22.516C18.7916 22.516 20.0532 23.7776 20.0532 25.3338Z" fill="#7F7C7A"/>
<path d="M34.1615 22.5159C32.6053 22.5159 31.3438 23.7774 31.3438 25.3336C31.3438 26.89 32.6053 28.1516 34.1615 28.1516C35.7176 28.1516 36.9792 26.89 36.9792 25.3336C36.9792 23.7774 35.7176 22.5159 34.1615 22.5159Z" fill="#7F7C7A"/>
</g>
<path d="M8.16734 48.5131C8.40069 48.5131 8.61326 48.4923 8.80505 48.4507C8.99685 48.4092 9.15987 48.342 9.29413 48.2493C9.43158 48.1566 9.53706 48.0352 9.61058 47.8849C9.6841 47.7315 9.72087 47.5429 9.72087 47.3191H8.8578C8.8578 47.3991 8.83702 47.463 8.79546 47.5109C8.75391 47.5557 8.69957 47.5909 8.63244 47.6164C8.56851 47.6388 8.49499 47.6548 8.41188 47.6644C8.32877 47.6708 8.24565 47.674 8.16254 47.674C7.86526 47.674 7.6447 47.602 7.50086 47.4582C7.35701 47.3112 7.28509 47.0778 7.28509 46.7582C7.28509 46.5983 7.29788 46.4625 7.32345 46.3506C7.35222 46.2355 7.39697 46.1412 7.4577 46.0677C7.51844 45.9942 7.59675 45.9398 7.69265 45.9047C7.79174 45.8695 7.91002 45.8519 8.04747 45.8519C8.14337 45.8519 8.23766 45.8583 8.33036 45.8711C8.42626 45.8807 8.51097 45.9015 8.58449 45.9334C8.66121 45.9622 8.72194 46.0022 8.76669 46.0533C8.81464 46.1045 8.83862 46.17 8.83862 46.2499H9.70169C9.70169 46.0261 9.66492 45.8359 9.5914 45.6793C9.51788 45.5227 9.4108 45.3948 9.27015 45.2957C9.1295 45.1966 8.95689 45.1247 8.75231 45.08C8.54773 45.0352 8.31278 45.0128 8.04747 45.0128C7.47209 45.0128 7.04535 45.1567 6.76725 45.4444C6.48915 45.7289 6.3501 46.1684 6.3501 46.7629C6.3501 47.3575 6.49874 47.7986 6.79602 48.0863C7.0933 48.3708 7.5504 48.5131 8.16734 48.5131Z" fill="#152C48"/>
<path d="M9.96094 46.7629C9.96094 47.3415 10.1016 47.7779 10.3829 48.0719C10.6674 48.366 11.1021 48.5131 11.6871 48.5131C12.272 48.5131 12.7052 48.366 12.9865 48.0719C13.271 47.7779 13.4132 47.3415 13.4132 46.7629C13.4132 46.1844 13.271 45.748 12.9865 45.454C12.7052 45.1599 12.272 45.0128 11.6871 45.0128C11.1021 45.0128 10.6674 45.1599 10.3829 45.454C10.1016 45.748 9.96094 46.1844 9.96094 46.7629ZM10.8959 46.7629C10.8959 46.4593 10.9551 46.2323 11.0733 46.0821C11.1916 45.9286 11.3962 45.8519 11.6871 45.8519C11.9588 45.8519 12.1586 45.9286 12.2864 46.0821C12.4143 46.2323 12.4782 46.4593 12.4782 46.7629C12.4782 47.0666 12.4143 47.2952 12.2864 47.4486C12.1586 47.5988 11.9588 47.674 11.6871 47.674C11.4154 47.674 11.2156 47.5988 11.0877 47.4486C10.9599 47.2952 10.8959 47.0666 10.8959 46.7629Z" fill="#152C48"/>
<path d="M13.7964 48.441H14.7074V45.0847H13.7964V48.441ZM16.002 48.441H16.913V45.0847H16.002V48.441ZM14.1033 45.7511L16.002 48.441L16.3904 47.4677L14.7074 45.0847L14.1033 45.7511Z" fill="#152C48"/>
<path d="M18.5963 47.2185C18.7114 47.2344 18.8216 47.2488 18.9271 47.2616C19.0326 47.2744 19.1253 47.2888 19.2052 47.3048C19.2883 47.3207 19.3539 47.3431 19.4018 47.3719C19.4498 47.3975 19.4737 47.4342 19.4737 47.4822C19.4737 47.5557 19.4274 47.6068 19.3347 47.6356C19.2452 47.6612 19.1077 47.674 18.9223 47.674C18.8232 47.674 18.7273 47.6708 18.6346 47.6644C18.5419 47.658 18.4604 47.6452 18.3901 47.626C18.3198 47.6036 18.2638 47.5733 18.2223 47.5349C18.1807 47.4934 18.1599 47.439 18.1599 47.3719H17.2969C17.2969 47.5829 17.332 47.7619 17.4024 47.9089C17.4727 48.0528 17.5734 48.1694 17.7044 48.2589C17.8387 48.3484 18.0001 48.4124 18.1887 48.4507C18.3805 48.4923 18.5947 48.5131 18.8312 48.5131C19.3746 48.5131 19.7726 48.4284 20.0251 48.2589C20.2809 48.0895 20.4087 47.8146 20.4087 47.4342C20.4087 47.2424 20.3752 47.081 20.308 46.9499C20.2441 46.8189 20.1514 46.7102 20.0299 46.6239C19.9117 46.5376 19.7678 46.4705 19.5984 46.4225C19.4322 46.3714 19.2452 46.3314 19.0374 46.3026C18.8808 46.2803 18.7497 46.2627 18.6442 46.2499C18.5419 46.2339 18.4604 46.2195 18.3997 46.2067C18.339 46.1908 18.2958 46.1716 18.2702 46.1492C18.2479 46.1268 18.2367 46.0981 18.2367 46.0629C18.2367 46.0277 18.2479 45.9974 18.2702 45.9718C18.2926 45.943 18.3262 45.9207 18.3709 45.9047C18.4157 45.8855 18.47 45.8727 18.5339 45.8663C18.6011 45.8567 18.6794 45.8519 18.7689 45.8519C18.8648 45.8519 18.9575 45.8551 19.047 45.8615C19.1365 45.8679 19.2148 45.8823 19.2819 45.9047C19.3491 45.9239 19.4018 45.9542 19.4402 45.9958C19.4817 46.0341 19.5025 46.0869 19.5025 46.154H20.3656C20.3656 45.943 20.3304 45.7656 20.2601 45.6218C20.1898 45.4747 20.0891 45.3565 19.958 45.267C19.8301 45.1775 19.6719 45.1135 19.4833 45.0752C19.2979 45.0336 19.0885 45.0128 18.8552 45.0128C18.3182 45.0128 17.925 45.0991 17.6757 45.2718C17.4263 45.4444 17.3017 45.7321 17.3017 46.1348C17.3017 46.3138 17.332 46.4657 17.3928 46.5903C17.4567 46.715 17.5462 46.8205 17.6613 46.9068C17.7764 46.9899 17.9122 47.0554 18.0688 47.1034C18.2287 47.1513 18.4045 47.1897 18.5963 47.2185Z" fill="#152C48"/>
<path d="M21.5596 48.441H22.4706V45.0847H21.5596V48.441ZM20.6006 45.8998H23.4295V45.0847H20.6006V45.8998Z" fill="#152C48"/>
<path d="M23.7173 48.441H24.6283V45.0847H23.7173V48.441ZM25.2516 47.3862C25.5297 47.3862 25.7615 47.3622 25.9469 47.3143C26.1355 47.2631 26.2857 47.1896 26.3976 47.0937C26.5127 46.9978 26.5942 46.8779 26.6421 46.7341C26.6901 46.5902 26.7141 46.424 26.7141 46.2354C26.7141 46.0468 26.6901 45.8806 26.6421 45.7368C26.5942 45.5929 26.5127 45.473 26.3976 45.3771C26.2857 45.2812 26.1355 45.2093 25.9469 45.1614C25.7615 45.1102 25.5297 45.0847 25.2516 45.0847H23.7173V45.8998H25.2181C25.3427 45.8998 25.4418 45.9078 25.5153 45.9238C25.5921 45.9365 25.6496 45.9573 25.688 45.9861C25.7263 46.0149 25.7503 46.05 25.7599 46.0916C25.7727 46.1331 25.7791 46.1811 25.7791 46.2354C25.7791 46.2898 25.7727 46.3377 25.7599 46.3793C25.7503 46.4208 25.7263 46.456 25.688 46.4847C25.6496 46.5135 25.5921 46.5359 25.5153 46.5519C25.4418 46.5647 25.3427 46.5711 25.2181 46.5711H23.7173V47.3862H25.2516ZM25.4674 46.7628H24.3646L25.6112 48.441H26.7141L25.4674 46.7628Z" fill="#152C48"/>
<path d="M28.5933 47.674C28.4942 47.674 28.4047 47.6628 28.3247 47.6404C28.2448 47.618 28.1777 47.5845 28.1234 47.5397C28.0722 47.4918 28.0323 47.4326 28.0035 47.3623C27.9747 47.292 27.9603 47.2089 27.9603 47.113V45.0848H27.0493V46.9547C27.0493 47.2552 27.0813 47.5061 27.1452 47.7075C27.2091 47.9057 27.305 48.0655 27.4329 48.187C27.5608 48.3053 27.7206 48.39 27.9124 48.4411C28.1074 48.4891 28.3343 48.5131 28.5933 48.5131C28.8522 48.5131 29.0775 48.4891 29.2693 48.4411C29.4643 48.39 29.6257 48.3053 29.7536 48.187C29.8815 48.0655 29.9774 47.9057 30.0413 47.7075C30.1052 47.5061 30.1372 47.2552 30.1372 46.9547V45.0848H29.2262V47.113C29.2262 47.2089 29.2118 47.292 29.183 47.3623C29.1542 47.4326 29.1127 47.4918 29.0584 47.5397C29.0072 47.5845 28.9417 47.618 28.8618 47.6404C28.785 47.6628 28.6955 47.674 28.5933 47.674Z" fill="#152C48"/>
<path d="M32.2904 48.5131C32.5237 48.5131 32.7363 48.4923 32.9281 48.4507C33.1199 48.4092 33.2829 48.342 33.4172 48.2493C33.5546 48.1566 33.6601 48.0352 33.7336 47.8849C33.8072 47.7315 33.8439 47.5429 33.8439 47.3191H32.9808C32.9808 47.3991 32.9601 47.463 32.9185 47.5109C32.877 47.5557 32.8226 47.5909 32.7555 47.6164C32.6916 47.6388 32.618 47.6548 32.5349 47.6644C32.4518 47.6708 32.3687 47.674 32.2856 47.674C31.9883 47.674 31.7677 47.602 31.6239 47.4582C31.4801 47.3112 31.4081 47.0778 31.4081 46.7582C31.4081 46.5983 31.4209 46.4625 31.4465 46.3506C31.4753 46.2355 31.52 46.1412 31.5808 46.0677C31.6415 45.9942 31.7198 45.9398 31.8157 45.9047C31.9148 45.8695 32.0331 45.8519 32.1705 45.8519C32.2664 45.8519 32.3607 45.8583 32.4534 45.8711C32.5493 45.8807 32.634 45.9015 32.7075 45.9334C32.7843 45.9622 32.845 46.0022 32.8897 46.0533C32.9377 46.1045 32.9617 46.17 32.9617 46.2499H33.8247C33.8247 46.0261 33.788 45.8359 33.7145 45.6793C33.6409 45.5227 33.5338 45.3948 33.3932 45.2957C33.2525 45.1966 33.0799 45.1247 32.8754 45.08C32.6708 45.0352 32.4358 45.0128 32.1705 45.0128C31.5951 45.0128 31.1684 45.1567 30.8903 45.4444C30.6122 45.7289 30.4731 46.1684 30.4731 46.7629C30.4731 47.3575 30.6218 47.7986 30.9191 48.0863C31.2163 48.3708 31.6735 48.5131 32.2904 48.5131Z" fill="#152C48"/>
<path d="M34.9468 48.441H35.8578V45.0847H34.9468V48.441ZM33.9878 45.8998H36.8167V45.0847H33.9878V45.8998Z" fill="#152C48"/>
<path d="M37.104 48.441H38.015V45.0847H37.104V48.441Z" fill="#152C48"/>
<path d="M38.3989 46.7629C38.3989 47.3415 38.5396 47.7779 38.8209 48.0719C39.1054 48.366 39.5401 48.5131 40.1251 48.5131C40.71 48.5131 41.1432 48.366 41.4245 48.0719C41.709 47.7779 41.8512 47.3415 41.8512 46.7629C41.8512 46.1844 41.709 45.748 41.4245 45.454C41.1432 45.1599 40.71 45.0128 40.1251 45.0128C39.5401 45.0128 39.1054 45.1599 38.8209 45.454C38.5396 45.748 38.3989 46.1844 38.3989 46.7629ZM39.3339 46.7629C39.3339 46.4593 39.3931 46.2323 39.5113 46.0821C39.6296 45.9286 39.8342 45.8519 40.1251 45.8519C40.3968 45.8519 40.5966 45.9286 40.7244 46.0821C40.8523 46.2323 40.9162 46.4593 40.9162 46.7629C40.9162 47.0666 40.8523 47.2952 40.7244 47.4486C40.5966 47.5988 40.3968 47.674 40.1251 47.674C39.8534 47.674 39.6536 47.5988 39.5257 47.4486C39.3978 47.2952 39.3339 47.0666 39.3339 46.7629Z" fill="#152C48"/>
<path d="M42.2349 48.441H43.1459V45.0847H42.2349V48.441ZM44.4405 48.441H45.3515V45.0847H44.4405V48.441ZM42.5417 45.7511L44.4405 48.441L44.8289 47.4677L43.1459 45.0847L42.5417 45.7511Z" fill="#152C48"/>
<mask id="mask1_372_109" style="mask-type:luminance" maskUnits="userSpaceOnUse" x="0" y="0" width="52" height="56">
<path d="M0.43457 1.90735e-05H51.1346V55.9623H0.43457V1.90735e-05Z" fill="white"/>
</mask>
<g mask="url(#mask1_372_109)">
<path d="M15.0107 39.5324H11.3718V37.5829H17.22V40.1431C17.22 40.5938 17.1484 40.9944 17.0055 41.3454C16.8626 41.6964 16.6677 42.0038 16.4208 42.268C16.1738 42.5325 15.8833 42.7534 15.5499 42.9308C15.2165 43.1084 14.8591 43.2537 14.4777 43.3662C14.0963 43.479 13.698 43.5611 13.2822 43.6131C12.8663 43.6652 12.4548 43.6912 12.0475 43.6912C10.9992 43.6912 10.0983 43.602 9.34431 43.4246C8.59064 43.2473 7.97548 42.9591 7.49885 42.5605C7.02251 42.1622 6.67153 41.64 6.44622 40.9944C6.22091 40.3492 6.1084 39.5584 6.1084 38.6227C6.1084 37.6784 6.21886 36.8833 6.43979 36.2377C6.66072 35.5925 7.00526 35.0703 7.47284 34.6719C7.94071 34.2733 8.53394 33.9875 9.25342 33.8139C9.97261 33.6409 10.83 33.5541 11.8265 33.5541C12.3377 33.5541 12.8055 33.5758 13.2301 33.619C13.6545 33.6626 14.0642 33.7318 14.4584 33.8271C14.8526 33.9224 15.2425 34.048 15.6279 34.2038C16.0134 34.3598 16.4143 34.5507 16.8302 34.776L15.4266 36.4782C15.0107 36.2009 14.5189 35.98 13.9514 35.8155C13.3839 35.6509 12.719 35.5685 11.9566 35.5685C11.3587 35.5685 10.8408 35.6185 10.4037 35.7178C9.96589 35.8178 9.60849 35.9844 9.33145 36.2184C9.05383 36.4522 8.84839 36.764 8.71396 37.1542C8.57982 37.544 8.51261 38.0335 8.51261 38.6227C8.51261 39.203 8.57982 39.6905 8.71396 40.0847C8.84839 40.4789 9.05383 40.7931 9.33145 41.0269C9.60849 41.2609 9.96589 41.4278 10.4037 41.5272C10.8408 41.6268 11.3587 41.6768 11.9566 41.6768C12.3377 41.6768 12.7103 41.6531 13.0744 41.6052C13.4382 41.5579 13.7632 41.4754 14.049 41.3583C14.3348 41.2414 14.5665 41.09 14.7442 40.9032C14.9216 40.7171 15.0107 40.4856 15.0107 40.208V39.5324Z" fill="#152C48"/>
<path d="M25.8886 37.7C26.1656 37.7 26.3865 37.6244 26.5514 37.4727C26.7159 37.321 26.7983 37.0633 26.7983 36.6994C26.7983 36.3353 26.7159 36.0779 26.5514 35.9262C26.3865 35.7745 26.1656 35.6985 25.8886 35.6985H20.7552V37.7H25.8886ZM18.5459 33.7493H26.0186C26.5818 33.7493 27.0558 33.8011 27.4415 33.9051C27.827 34.0091 28.1411 34.178 28.3837 34.4121C28.6262 34.6459 28.8016 34.9513 28.91 35.3283C29.0184 35.7053 29.0725 36.1623 29.0725 36.6994C29.0725 37.2278 29.0184 37.6805 28.91 38.0574C28.8016 38.4344 28.6262 38.7398 28.3837 38.9736C28.1411 39.2074 27.827 39.3786 27.4415 39.4871C27.0558 39.5955 26.5818 39.6495 26.0186 39.6495H24.9788L29.7224 43.4962H26.2135L21.9116 39.6495H20.7552V43.4962H18.5459V33.7493Z" fill="#152C48"/>
<path d="M30.6577 33.7492H32.867V43.4963H30.6577V33.7492Z" fill="#152C48"/>
<path d="M41.4186 41.5467C41.6179 41.5467 41.8169 41.4862 42.0165 41.3647C42.2155 41.2434 42.3953 41.064 42.5557 40.8255C42.7161 40.5873 42.8459 40.284 42.9455 39.9158C43.0452 39.5475 43.0952 39.1165 43.0952 38.6226C43.0952 38.1288 43.0452 37.698 42.9455 37.3295C42.8459 36.9613 42.7161 36.6582 42.5557 36.4198C42.3953 36.1816 42.2155 36.0019 42.0165 35.8806C41.8169 35.7593 41.6179 35.6985 41.4186 35.6985H36.6622V41.5467H41.4186ZM34.4526 33.749H41.5355C42.0987 33.749 42.6144 33.8358 43.082 34.0091C43.5499 34.1824 43.9529 34.4618 44.2907 34.8473C44.6288 35.233 44.893 35.7354 45.0835 36.3549C45.2741 36.9744 45.3693 37.7304 45.3693 38.6226C45.3693 39.5063 45.2741 40.2583 45.0835 40.8775C44.893 41.497 44.6288 42.0017 44.2907 42.3916C43.9529 42.7814 43.5499 43.0631 43.082 43.2361C42.6144 43.4097 42.0987 43.4962 41.5355 43.4962H34.4526V33.749Z" fill="#152C48"/>
</g>
</g>
<defs>
<clipPath id="clip0_372_109">
<rect width="50.7" height="55.9623" fill="white" transform="translate(0.43457)"/>
</clipPath>
</defs>
</svg>
