<svg width="52" height="56" viewBox="0 0 52 56" fill="none" xmlns="http://www.w3.org/2000/svg">
<g clip-path="url(#clip0_372_49)">
<mask id="mask0_372_49" style="mask-type:luminance" maskUnits="userSpaceOnUse" x="0" y="0" width="52" height="56">
<path d="M0.734375 1.90735e-05H51.4344V55.9623H0.734375V1.90735e-05Z" fill="white"/>
</mask>
<g mask="url(#mask0_372_49)">
<path d="M28.8301 8.45437C28.8301 10.0105 27.5685 11.2721 26.0124 11.2721C24.4559 11.2721 23.1943 10.0105 23.1943 8.45437C23.1943 6.89823 24.4559 5.63665 26.0124 5.63665C27.5685 5.63665 28.8301 6.89823 28.8301 8.45437Z" fill="#EC1C24"/>
<path d="M20.353 8.45437C20.353 10.0105 19.0914 11.2721 17.5353 11.2721C15.9789 11.2721 14.7173 10.0105 14.7173 8.45437C14.7173 6.89823 15.9789 5.63665 17.5353 5.63665C19.0914 5.63665 20.353 6.89823 20.353 8.45437Z" fill="#EC1C24"/>
<path d="M31.6436 16.8765C31.6436 15.3203 32.9051 14.0588 34.4613 14.0588C36.0177 14.0588 37.2793 15.3203 37.2793 16.8765C37.2793 18.4326 36.0177 19.6942 34.4613 19.6942C32.9051 19.6942 31.6436 18.4326 31.6436 16.8765Z" fill="#EC1C24"/>
<path d="M28.8301 16.8765C28.8301 18.4326 27.5685 19.6942 26.0124 19.6942C24.4559 19.6942 23.1943 18.4326 23.1943 16.8765C23.1943 15.3203 24.4559 14.0588 26.0124 14.0588C27.5685 14.0588 28.8301 15.3203 28.8301 16.8765Z" fill="#EC1C24"/>
<path d="M20.353 16.8765C20.353 18.4326 19.0914 19.6942 17.5353 19.6942C15.9789 19.6942 14.7173 18.4326 14.7173 16.8765C14.7173 15.3203 15.9789 14.0588 17.5353 14.0588C19.0914 14.0588 20.353 15.3203 20.353 16.8765Z" fill="#EC1C24"/>
<path d="M34.4613 11.2722C36.0174 11.2722 37.279 10.0106 37.279 8.45449C37.279 6.89806 36.0174 5.63648 34.4613 5.63648C32.9051 5.63648 31.6436 6.89806 31.6436 8.45449C31.6436 10.0106 32.9051 11.2722 34.4613 11.2722ZM34.4613 10.98C33.0688 10.98 31.9358 9.84699 31.9358 8.45449C31.9358 7.06171 33.0688 5.92871 34.4613 5.92871C35.8538 5.92871 36.9868 7.06171 36.9868 8.45449C36.9868 9.84699 35.8538 10.98 34.4613 10.98Z" fill="#EC1C24"/>
<path d="M26.0121 22.5159C24.4559 22.5159 23.1943 23.7774 23.1943 25.3336C23.1943 26.89 24.4559 28.1516 26.0121 28.1516C27.5682 28.1516 28.8298 26.89 28.8298 25.3336C28.8298 23.7774 27.5682 22.5159 26.0121 22.5159Z" fill="#EC1C24"/>
<path d="M20.353 25.3336C20.353 26.8898 19.0914 28.1514 17.5353 28.1514C15.9789 28.1514 14.7173 26.8898 14.7173 25.3336C14.7173 23.7775 15.9789 22.5159 17.5353 22.5159C19.0914 22.5159 20.353 23.7775 20.353 25.3336Z" fill="#EC1C24"/>
<path d="M34.4613 22.5159C32.9051 22.5159 31.6436 23.7774 31.6436 25.3336C31.6436 26.89 32.9051 28.1516 34.4613 28.1516C36.0174 28.1516 37.279 26.89 37.279 25.3336C37.279 23.7774 36.0174 22.5159 34.4613 22.5159ZM34.4613 22.8081C35.8538 22.8081 36.9868 23.9411 36.9868 25.3336C36.9868 26.7264 35.8538 27.8594 34.4613 27.8594C33.0688 27.8594 31.9358 26.7264 31.9358 25.3336C31.9358 23.9411 33.0688 22.8081 34.4613 22.8081Z" fill="#EC1C24"/>
</g>
<path d="M6.75732 48.6307H7.71073V45.1182H6.75732V48.6307ZM8.23761 48.6307C8.54203 48.6307 8.80631 48.5939 9.03044 48.5203C9.25792 48.4467 9.44693 48.3364 9.59747 48.1892C9.74801 48.042 9.86007 47.8596 9.93367 47.6422C10.0073 47.4214 10.0441 47.1655 10.0441 46.8745C10.0441 46.5834 10.0073 46.3292 9.93367 46.1117C9.86007 45.891 9.74801 45.707 9.59747 45.5598C9.44693 45.4126 9.25792 45.3022 9.03044 45.2286C8.80631 45.155 8.54203 45.1182 8.23761 45.1182H6.75732V45.9712H8.23761C8.37811 45.9712 8.50022 45.9913 8.60392 46.0315C8.70762 46.0683 8.79293 46.1251 8.85983 46.2021C8.93009 46.2757 8.98194 46.3693 9.01539 46.4831C9.04884 46.5935 9.06557 46.7223 9.06557 46.8694C9.06557 47.02 9.04884 47.1521 9.01539 47.2659C8.98194 47.3796 8.93009 47.4749 8.85983 47.5519C8.79293 47.6255 8.70762 47.6823 8.60392 47.7225C8.50022 47.7593 8.37811 47.7777 8.23761 47.7777H6.75732V48.6307H8.23761Z" fill="#7D7C7B"/>
<path d="M10.8218 48.6307H11.7752V45.1182H10.8218V48.6307ZM11.2232 47.301H13.5315V46.4479H11.2232V47.301ZM11.2232 45.9712H13.7322V45.1182H11.2232V45.9712ZM11.2232 48.6307H13.7824V47.7777H11.2232V48.6307Z" fill="#7D7C7B"/>
<path d="M15.8193 47.3511C15.9398 47.3678 16.0552 47.3829 16.1656 47.3963C16.276 47.4096 16.373 47.4247 16.4566 47.4414C16.5436 47.4581 16.6122 47.4816 16.6623 47.5117C16.7125 47.5384 16.7376 47.5769 16.7376 47.6271C16.7376 47.704 16.6891 47.7575 16.5921 47.7877C16.4984 47.8144 16.3546 47.8278 16.1605 47.8278C16.0568 47.8278 15.9565 47.8245 15.8595 47.8178C15.7625 47.8111 15.6772 47.7977 15.6036 47.7776C15.53 47.7542 15.4714 47.7224 15.4279 47.6823C15.3844 47.6388 15.3627 47.5819 15.3627 47.5117H14.4595C14.4595 47.7325 14.4963 47.9198 14.5699 48.0737C14.6435 48.2242 14.7488 48.3463 14.886 48.44C15.0265 48.5337 15.1954 48.6006 15.3928 48.6407C15.5935 48.6842 15.8177 48.7059 16.0652 48.7059C16.6339 48.7059 17.0504 48.6173 17.3147 48.44C17.5823 48.2627 17.7161 47.975 17.7161 47.5769C17.7161 47.3762 17.681 47.2072 17.6107 47.0701C17.5438 46.9329 17.4468 46.8192 17.3197 46.7289C17.1959 46.6385 17.0454 46.5683 16.8681 46.5181C16.6941 46.4646 16.4984 46.4228 16.281 46.3927C16.1171 46.3693 15.9799 46.3509 15.8695 46.3375C15.7625 46.3207 15.6772 46.3057 15.6136 46.2923C15.55 46.2756 15.5049 46.2555 15.4781 46.2321C15.4547 46.2087 15.443 46.1786 15.443 46.1418C15.443 46.105 15.4547 46.0732 15.4781 46.0464C15.5015 46.0163 15.5367 45.9929 15.5835 45.9762C15.6303 45.9561 15.6872 45.9427 15.7541 45.936C15.8243 45.926 15.9063 45.921 16 45.921C16.1003 45.921 16.1973 45.9243 16.291 45.931C16.3847 45.9377 16.4666 45.9528 16.5369 45.9762C16.6071 45.9963 16.6623 46.028 16.7025 46.0715C16.746 46.1117 16.7677 46.1669 16.7677 46.2371H17.6709C17.6709 46.0163 17.6341 45.8307 17.5605 45.6801C17.487 45.5262 17.3816 45.4025 17.2444 45.3088C17.1106 45.2151 16.945 45.1482 16.7476 45.1081C16.5536 45.0646 16.3345 45.0428 16.0903 45.0428C15.5283 45.0428 15.1168 45.1332 14.8559 45.3138C14.595 45.4945 14.4645 45.7955 14.4645 46.217C14.4645 46.4044 14.4963 46.5633 14.5598 46.6937C14.6267 46.8242 14.7204 46.9346 14.8408 47.0249C14.9613 47.1119 15.1034 47.1805 15.2674 47.2307C15.4346 47.2808 15.6186 47.321 15.8193 47.3511Z" fill="#7D7C7B"/>
<path d="M18.4941 48.6307H19.4475V45.1182H18.4941V48.6307Z" fill="#7D7C7B"/>
<path d="M21.7204 48.7059C21.9278 48.7059 22.1202 48.6558 22.2975 48.5554C22.4781 48.455 22.6421 48.3262 22.7893 48.169C22.9398 48.0084 23.0719 47.8295 23.1857 47.6321C23.2994 47.4314 23.3964 47.2307 23.4767 47.0299L23 46.8945C22.9465 47.0049 22.8863 47.1153 22.8194 47.2256C22.7525 47.336 22.6772 47.4364 22.5936 47.5267C22.5099 47.617 22.4179 47.6906 22.3176 47.7475C22.2206 47.801 22.1118 47.8278 21.9914 47.8278C21.8676 47.8278 21.7572 47.8094 21.6602 47.7726C21.5632 47.7358 21.4813 47.6789 21.4143 47.602C21.3474 47.5217 21.2956 47.4213 21.2588 47.3009C21.222 47.1805 21.2036 47.0366 21.2036 46.8694C21.2036 46.7021 21.217 46.5599 21.2437 46.4428C21.2738 46.3224 21.3207 46.2237 21.3842 46.1468C21.4478 46.0698 21.5298 46.013 21.6301 45.9762C21.7338 45.9394 21.8576 45.921 22.0014 45.921C22.1018 45.921 22.2005 45.9277 22.2975 45.9411C22.3979 45.9511 22.4865 45.9728 22.5635 46.0063C22.6437 46.0364 22.7073 46.0782 22.7541 46.1317C22.8043 46.1853 22.8294 46.2538 22.8294 46.3375H23.7326C23.7326 46.1033 23.6942 45.9043 23.6172 45.7403C23.5403 45.5764 23.4282 45.4426 23.281 45.3389C23.1338 45.2352 22.9532 45.1599 22.7391 45.1131C22.525 45.0663 22.2791 45.0428 22.0014 45.0428C21.3993 45.0428 20.9527 45.1934 20.6617 45.4945C20.3706 45.7922 20.2251 46.2522 20.2251 46.8744C20.2251 47.1822 20.2602 47.4515 20.3305 47.6823C20.4007 47.9098 20.4994 48.1004 20.6265 48.2543C20.757 48.4049 20.9142 48.5186 21.0982 48.5955C21.2822 48.6691 21.4896 48.7059 21.7204 48.7059ZM22.8545 48.6307H23.7577V47.1253H22.8545V48.6307ZM21.9011 47.4565H23.7577V46.6536H21.9011V47.4565Z" fill="#7D7C7B"/>
<path d="M24.5859 48.6307H25.5393V45.1182H24.5859V48.6307ZM26.8942 48.6307H27.8476V45.1182H26.8942V48.6307ZM24.9071 45.8157L26.8942 48.6307L27.3006 47.6121L25.5393 45.1182L24.9071 45.8157Z" fill="#7D7C7B"/>
<path d="M31.661 47.3812L33.2768 48.6307H34.4259L32.2431 46.759C32.1862 46.7088 32.1193 46.6586 32.0424 46.6084C31.9654 46.5583 31.8918 46.5081 31.8216 46.4579C31.7547 46.4077 31.6978 46.3575 31.651 46.3074C31.6041 46.2538 31.5807 46.202 31.5807 46.1518C31.5807 46.115 31.5857 46.0832 31.5958 46.0565C31.6091 46.0264 31.6292 46.0013 31.656 45.9812C31.6861 45.9611 31.7246 45.9461 31.7714 45.936C31.8182 45.926 31.8768 45.921 31.947 45.921C32.0641 45.921 32.1511 45.9427 32.2079 45.9862C32.2682 46.0297 32.2983 46.0949 32.2983 46.1819C32.2983 46.2321 32.2832 46.2739 32.2531 46.3074C32.223 46.3375 32.1778 46.3642 32.1176 46.3877C32.0574 46.4111 31.9821 46.4295 31.8918 46.4428C31.8048 46.4562 31.7028 46.4696 31.5857 46.483C31.4218 46.5031 31.2612 46.5348 31.104 46.5783C30.9501 46.6218 30.8146 46.6854 30.6976 46.769C30.5805 46.8493 30.4851 46.9547 30.4115 47.0851C30.3413 47.2156 30.3062 47.3779 30.3062 47.5719C30.3062 47.7559 30.3379 47.9198 30.4015 48.0636C30.4651 48.2041 30.5704 48.3229 30.7176 48.4199C30.8648 48.5136 31.0572 48.5838 31.2947 48.6307C31.5355 48.6808 31.8299 48.7059 32.1778 48.7059C32.586 48.7059 32.9205 48.6457 33.1814 48.5253C33.4457 48.4049 33.6531 48.2543 33.8036 48.0737C33.9575 47.8897 34.0629 47.6906 34.1198 47.4765C34.18 47.2624 34.2101 47.0634 34.2101 46.8794V46.8192H33.3571V46.8794C33.3571 47.0132 33.3353 47.1303 33.2918 47.2307C33.2517 47.331 33.1981 47.4163 33.1312 47.4866C33.0643 47.5568 32.9874 47.6137 32.9004 47.6572C32.8168 47.7007 32.7315 47.7358 32.6445 47.7626C32.5575 47.786 32.4739 47.8027 32.3936 47.8127C32.3167 47.8228 32.2498 47.8278 32.1929 47.8278C32.0022 47.8278 31.8483 47.8211 31.7312 47.8077C31.6142 47.7943 31.5222 47.7759 31.4553 47.7525C31.3884 47.7291 31.3432 47.7007 31.3198 47.6672C31.2964 47.6338 31.2846 47.5953 31.2846 47.5518C31.2846 47.5083 31.2964 47.4699 31.3198 47.4364C31.3432 47.4029 31.3783 47.3728 31.4251 47.3461C31.4753 47.3193 31.5389 47.2942 31.6158 47.2708C31.6928 47.2474 31.7848 47.2256 31.8918 47.2056C32.029 47.1788 32.1778 47.147 32.3384 47.1102C32.5023 47.0734 32.6529 47.0182 32.79 46.9446C32.9305 46.871 33.0459 46.774 33.1363 46.6536C33.2299 46.5332 33.2768 46.3759 33.2768 46.1819C33.2768 45.8072 33.1664 45.5246 32.9456 45.3339C32.7281 45.1399 32.3953 45.0428 31.947 45.0428C31.7195 45.0428 31.5205 45.0679 31.3499 45.1181C31.1826 45.165 31.0438 45.2352 30.9334 45.3289C30.823 45.4192 30.7394 45.5313 30.6825 45.6651C30.629 45.7989 30.6022 45.9511 30.6022 46.1217C30.6022 46.2655 30.6457 46.4044 30.7327 46.5382C30.8197 46.6687 30.9217 46.7891 31.0388 46.8995C31.1559 47.0065 31.2729 47.1019 31.39 47.1855C31.5105 47.2691 31.6008 47.3344 31.661 47.3812Z" fill="#7D7C7B"/>
<path d="M6.75732 53.774H7.71073V50.2615H6.75732V53.774ZM7.15876 52.4443H9.467V51.5913H7.15876V52.4443ZM7.15876 51.1145H9.66772V50.2615H7.15876V51.1145ZM7.15876 53.774H9.7179V52.921H7.15876V53.774Z" fill="#7D7C7B"/>
<path d="M10.4956 53.774H11.449V50.2615H10.4956V53.774ZM12.8039 53.774H13.7573V50.2615H12.8039V53.774ZM10.8168 50.959L12.8039 53.774L13.2103 52.7554L11.449 50.2615L10.8168 50.959Z" fill="#7D7C7B"/>
<path d="M16.0305 53.8494C16.2379 53.8494 16.4303 53.7992 16.6076 53.6988C16.7882 53.5985 16.9521 53.4697 17.0993 53.3124C17.2499 53.1519 17.382 52.9729 17.4957 52.7755C17.6095 52.5748 17.7065 52.3741 17.7868 52.1734L17.3101 52.0379C17.2565 52.1483 17.1963 52.2587 17.1294 52.3691C17.0625 52.4795 16.9872 52.5798 16.9036 52.6702C16.82 52.7605 16.728 52.8341 16.6276 52.8909C16.5306 52.9445 16.4219 52.9712 16.3015 52.9712C16.1777 52.9712 16.0673 52.9528 15.9703 52.916C15.8733 52.8792 15.7913 52.8224 15.7244 52.7454C15.6575 52.6651 15.6056 52.5648 15.5688 52.4443C15.5321 52.3239 15.5137 52.1801 15.5137 52.0128C15.5137 51.8455 15.527 51.7034 15.5538 51.5863C15.5839 51.4659 15.6307 51.3672 15.6943 51.2902C15.7579 51.2133 15.8398 51.1564 15.9402 51.1196C16.0439 51.0828 16.1677 51.0644 16.3115 51.0644C16.4119 51.0644 16.5105 51.0711 16.6076 51.0845C16.7079 51.0945 16.7966 51.1163 16.8735 51.1497C16.9538 51.1798 17.0174 51.2216 17.0642 51.2752C17.1144 51.3287 17.1395 51.3973 17.1395 51.4809H18.0427C18.0427 51.2467 18.0042 51.0477 17.9273 50.8838C17.8503 50.7199 17.7383 50.586 17.5911 50.4823C17.4439 50.3786 17.2632 50.3034 17.0491 50.2565C16.835 50.2097 16.5892 50.1863 16.3115 50.1863C15.7094 50.1863 15.2628 50.3368 14.9717 50.6379C14.6807 50.9356 14.5352 51.3956 14.5352 52.0178C14.5352 52.3256 14.5703 52.5949 14.6405 52.8257C14.7108 53.0532 14.8095 53.2439 14.9366 53.3978C15.0671 53.5483 15.2243 53.662 15.4083 53.739C15.5923 53.8126 15.7997 53.8494 16.0305 53.8494ZM17.1645 53.7741H18.0678V52.2687H17.1645V53.7741ZM16.2111 52.5999H18.0678V51.797H16.2111V52.5999Z" fill="#7D7C7B"/>
<path d="M18.8955 53.774H19.8489V50.2615H18.8955V53.774Z" fill="#7D7C7B"/>
<path d="M20.7271 53.774H21.6805V50.2615H20.7271V53.774ZM23.0353 53.774H23.9887V50.2615H23.0353V53.774ZM21.0482 50.959L23.0353 53.774L23.4417 52.7554L21.6805 50.2615L21.0482 50.959Z" fill="#7D7C7B"/>
<path d="M24.8667 53.774H25.8201V50.2615H24.8667V53.774ZM25.2681 52.4443H27.5764V51.5913H25.2681V52.4443ZM25.2681 51.1145H27.7771V50.2615H25.2681V51.1145ZM25.2681 53.774H27.8273V52.921H25.2681V53.774Z" fill="#7D7C7B"/>
<path d="M28.6055 53.774H29.5589V50.2615H28.6055V53.774ZM29.0069 52.4443H31.3151V51.5913H29.0069V52.4443ZM29.0069 51.1145H31.5159V50.2615H29.0069V51.1145ZM29.0069 53.774H31.566V52.921H29.0069V53.774Z" fill="#7D7C7B"/>
<path d="M32.3438 53.774H33.2972V50.2615H32.3438V53.774ZM33.9495 52.6701C34.2405 52.6701 34.4831 52.645 34.6771 52.5948C34.8745 52.5413 35.0317 52.4644 35.1488 52.364C35.2692 52.2637 35.3545 52.1382 35.4047 51.9877C35.4549 51.8371 35.48 51.6632 35.48 51.4658C35.48 51.2684 35.4549 51.0945 35.4047 50.9439C35.3545 50.7934 35.2692 50.668 35.1488 50.5676C35.0317 50.4672 34.8745 50.392 34.6771 50.3418C34.4831 50.2883 34.2405 50.2615 33.9495 50.2615H32.3438V51.1145H33.9144C34.0448 51.1145 34.1485 51.1229 34.2255 51.1396C34.3058 51.153 34.366 51.1748 34.4061 51.2049C34.4463 51.235 34.4714 51.2718 34.4814 51.3153C34.4948 51.3588 34.5015 51.4089 34.5015 51.4658C34.5015 51.5227 34.4948 51.5729 34.4814 51.6163C34.4714 51.6598 34.4463 51.6966 34.4061 51.7267C34.366 51.7568 34.3058 51.7803 34.2255 51.797C34.1485 51.8104 34.0448 51.8171 33.9144 51.8171H32.3438V52.6701H33.9495ZM34.1753 52.0178H33.0212L34.3258 53.774H35.48L34.1753 52.0178Z" fill="#7D7C7B"/>
<path d="M36.2573 53.774H37.2107V50.2615H36.2573V53.774Z" fill="#7D7C7B"/>
<path d="M38.0889 53.774H39.0423V50.2615H38.0889V53.774ZM40.3971 53.774H41.3505V50.2615H40.3971V53.774ZM38.41 50.959L40.3971 53.774L40.8036 52.7554L39.0423 50.2615L38.41 50.959Z" fill="#7D7C7B"/>
<path d="M43.6238 53.8494C43.8312 53.8494 44.0235 53.7992 44.2008 53.6988C44.3815 53.5985 44.5454 53.4697 44.6926 53.3124C44.8431 53.1519 44.9753 52.9729 45.089 52.7755C45.2027 52.5748 45.2997 52.3741 45.38 52.1734L44.9033 52.0379C44.8498 52.1483 44.7896 52.2587 44.7227 52.3691C44.6558 52.4795 44.5805 52.5798 44.4969 52.6702C44.4132 52.7605 44.3213 52.8341 44.2209 52.8909C44.1239 52.9445 44.0152 52.9712 43.8947 52.9712C43.771 52.9712 43.6606 52.9528 43.5635 52.916C43.4665 52.8792 43.3846 52.8224 43.3177 52.7454C43.2508 52.6651 43.1989 52.5648 43.1621 52.4443C43.1253 52.3239 43.1069 52.1801 43.1069 52.0128C43.1069 51.8455 43.1203 51.7034 43.1471 51.5863C43.1772 51.4659 43.224 51.3672 43.2876 51.2902C43.3511 51.2133 43.4331 51.1564 43.5334 51.1196C43.6371 51.0828 43.7609 51.0644 43.9048 51.0644C44.0051 51.0644 44.1038 51.0711 44.2008 51.0845C44.3012 51.0945 44.3898 51.1163 44.4668 51.1497C44.5471 51.1798 44.6106 51.2216 44.6575 51.2752C44.7076 51.3287 44.7327 51.3973 44.7327 51.4809H45.6359C45.6359 51.2467 45.5975 51.0477 45.5205 50.8838C45.4436 50.7199 45.3315 50.586 45.1843 50.4823C45.0371 50.3786 44.8565 50.3034 44.6424 50.2565C44.4283 50.2097 44.1824 50.1863 43.9048 50.1863C43.3026 50.1863 42.856 50.3368 42.565 50.6379C42.2739 50.9356 42.1284 51.3956 42.1284 52.0178C42.1284 52.3256 42.1635 52.5949 42.2338 52.8257C42.304 53.0532 42.4027 53.2439 42.5299 53.3978C42.6603 53.5483 42.8175 53.662 43.0015 53.739C43.1855 53.8126 43.3929 53.8494 43.6238 53.8494ZM44.7578 53.7741H45.661V52.2687H44.7578V53.7741ZM43.8044 52.5999H45.661V51.797H43.8044V52.5999Z" fill="#7D7C7B"/>
<mask id="mask1_372_49" style="mask-type:luminance" maskUnits="userSpaceOnUse" x="0" y="0" width="52" height="56">
<path d="M0.734375 1.90735e-05H51.4344V55.9623H0.734375V1.90735e-05Z" fill="white"/>
</mask>
<g mask="url(#mask1_372_49)">
<path d="M15.3105 39.5324H11.6716V37.5829H17.5198V40.1431C17.5198 40.5938 17.4482 40.9944 17.3053 41.3454C17.1624 41.6964 16.9675 42.0038 16.7206 42.268C16.4736 42.5325 16.1831 42.7534 15.8497 42.9308C15.5163 43.1084 15.1589 43.2537 14.7775 43.3662C14.3961 43.479 13.9978 43.5611 13.582 43.6131C13.1661 43.6652 12.7547 43.6912 12.3473 43.6912C11.299 43.6912 10.3981 43.602 9.64411 43.4246C8.89044 43.2473 8.27529 42.9591 7.79865 42.5605C7.32231 42.1622 6.97134 41.64 6.74603 40.9944C6.52071 40.3492 6.4082 39.5584 6.4082 38.6227C6.4082 37.6784 6.51867 36.8833 6.7396 36.2377C6.96053 35.5925 7.30507 35.0703 7.77264 34.6719C8.24051 34.2733 8.83375 33.9875 9.55323 33.8139C10.2724 33.6409 11.1298 33.5541 12.1263 33.5541C12.6375 33.5541 13.1053 33.5758 13.5299 33.619C13.9543 33.6626 14.364 33.7318 14.7582 33.8271C15.1524 33.9224 15.5423 34.048 15.9277 34.2038C16.3132 34.3598 16.7141 34.5507 17.13 34.776L15.7264 36.4782C15.3105 36.2009 14.8187 35.98 14.2512 35.8155C13.6837 35.6509 13.0188 35.5685 12.2564 35.5685C11.6585 35.5685 11.1406 35.6185 10.7035 35.7178C10.2657 35.8178 9.90829 35.9844 9.63125 36.2184C9.35363 36.4522 9.14819 36.764 9.01376 37.1542C8.87963 37.544 8.81241 38.0335 8.81241 38.6227C8.81241 39.203 8.87963 39.6905 9.01376 40.0847C9.14819 40.4789 9.35363 40.7931 9.63125 41.0269C9.90829 41.2609 10.2657 41.4278 10.7035 41.5272C11.1406 41.6268 11.6585 41.6768 12.2564 41.6768C12.6375 41.6768 13.0101 41.6531 13.3742 41.6052C13.738 41.5579 14.063 41.4754 14.3488 41.3583C14.6346 41.2414 14.8663 41.09 15.044 40.9032C15.2214 40.7171 15.3105 40.4856 15.3105 40.208V39.5324Z" fill="#7D7C7B"/>
<path d="M26.1884 37.7C26.4654 37.7 26.6863 37.6244 26.8512 37.4727C27.0157 37.321 27.0981 37.0633 27.0981 36.6994C27.0981 36.3353 27.0157 36.0779 26.8512 35.9262C26.6863 35.7745 26.4654 35.6985 26.1884 35.6985H21.055V37.7H26.1884ZM18.8457 33.7493H26.3184C26.8816 33.7493 27.3556 33.8011 27.7413 33.9051C28.1268 34.0091 28.4409 34.178 28.6835 34.4121C28.926 34.6459 29.1014 34.9513 29.2098 35.3283C29.3182 35.7053 29.3723 36.1623 29.3723 36.6994C29.3723 37.2278 29.3182 37.6805 29.2098 38.0574C29.1014 38.4344 28.926 38.7398 28.6835 38.9736C28.4409 39.2074 28.1268 39.3786 27.7413 39.4871C27.3556 39.5955 26.8816 39.6495 26.3184 39.6495H25.2787L30.0222 43.4962H26.5133L22.2114 39.6495H21.055V43.4962H18.8457V33.7493Z" fill="#7D7C7B"/>
<path d="M30.9575 33.7492H33.1668V43.4963H30.9575V33.7492Z" fill="#7D7C7B"/>
<path d="M41.7184 41.5467C41.9177 41.5467 42.1167 41.4862 42.3163 41.3647C42.5153 41.2434 42.6951 41.064 42.8555 40.8255C43.0159 40.5873 43.1457 40.284 43.2454 39.9158C43.345 39.5475 43.395 39.1165 43.395 38.6226C43.395 38.1288 43.345 37.698 43.2454 37.3295C43.1457 36.9613 43.0159 36.6582 42.8555 36.4198C42.6951 36.1816 42.5153 36.0019 42.3163 35.8806C42.1167 35.7593 41.9177 35.6985 41.7184 35.6985H36.962V41.5467H41.7184ZM34.7524 33.749H41.8353C42.3985 33.749 42.9142 33.8358 43.3818 34.0091C43.8497 34.1824 44.2527 34.4618 44.5905 34.8473C44.9286 35.233 45.1928 35.7354 45.3833 36.3549C45.5739 36.9744 45.6691 37.7304 45.6691 38.6226C45.6691 39.5063 45.5739 40.2583 45.3833 40.8775C45.1928 41.497 44.9286 42.0017 44.5905 42.3916C44.2527 42.7814 43.8497 43.0631 43.3818 43.2361C42.9142 43.4097 42.3985 43.4962 41.8353 43.4962H34.7524V33.749Z" fill="#7D7C7B"/>
</g>
</g>
<defs>
<clipPath id="clip0_372_49">
<rect width="50.7" height="55.9623" fill="white" transform="translate(0.734375)"/>
</clipPath>
</defs>
</svg>
