<svg width="51" height="56" viewBox="0 0 51 56" fill="none" xmlns="http://www.w3.org/2000/svg">
<mask id="mask0_372_2" style="mask-type:luminance" maskUnits="userSpaceOnUse" x="0" y="0" width="51" height="56">
<path d="M0 -3.8147e-06H50.7342V56H0V-3.8147e-06Z" fill="white"/>
</mask>
<g mask="url(#mask0_372_2)">
<path d="M28.1146 8.46016C28.1146 10.0174 26.8522 11.2798 25.295 11.2798C23.7375 11.2798 22.4751 10.0174 22.4751 8.46016C22.4751 6.90297 23.7375 5.64054 25.295 5.64054C26.8522 5.64054 28.1146 6.90297 28.1146 8.46016Z" fill="#D4962A"/>
<path d="M19.6317 8.46016C19.6317 10.0174 18.3693 11.2798 16.8121 11.2798C15.2546 11.2798 13.9922 10.0174 13.9922 8.46016C13.9922 6.90297 15.2546 5.64054 16.8121 5.64054C18.3693 5.64054 19.6317 6.90297 19.6317 8.46016Z" fill="#D4962A"/>
<path d="M36.5692 8.46016C36.5692 10.0174 35.3068 11.2798 33.7496 11.2798C32.1921 11.2798 30.9297 10.0174 30.9297 8.46016C30.9297 6.90297 32.1921 5.64054 33.7496 5.64054C35.3068 5.64054 36.5692 6.90297 36.5692 8.46016Z" fill="#D4962A"/>
<path d="M28.1146 16.8879C28.1146 18.4451 26.8522 19.7075 25.295 19.7075C23.7375 19.7075 22.4751 18.4451 22.4751 16.8879C22.4751 15.3307 23.7375 14.0683 25.295 14.0683C26.8522 14.0683 28.1146 15.3307 28.1146 16.8879Z" fill="#D4962A"/>
<path d="M19.6317 16.8879C19.6317 18.4451 18.3693 19.7075 16.8121 19.7075C15.2546 19.7075 13.9922 18.4451 13.9922 16.8879C13.9922 15.3307 15.2546 14.0683 16.8121 14.0683C18.3693 14.0683 19.6317 15.3307 19.6317 16.8879Z" fill="#D4962A"/>
<path d="M33.7493 14.0682C32.1921 14.0682 30.9297 15.3307 30.9297 16.8878C30.9297 18.4453 32.1921 19.7078 33.7493 19.7078C35.3065 19.7078 36.5689 18.4453 36.5689 16.8878C36.5689 15.3307 35.3065 14.0682 33.7493 14.0682ZM33.7493 14.3607C35.1427 14.3607 36.2765 15.4944 36.2765 16.8878C36.2765 18.2816 35.1427 19.4153 33.7493 19.4153C32.3559 19.4153 31.2221 18.2816 31.2221 16.8878C31.2221 15.4944 32.3559 14.3607 33.7493 14.3607Z" fill="#D4962A"/>
<path d="M25.2947 22.531C23.7375 22.531 22.4751 23.7934 22.4751 25.3506C22.4751 26.9081 23.7375 28.1705 25.2947 28.1705C26.8519 28.1705 28.1143 26.9081 28.1143 25.3506C28.1143 23.7934 26.8519 22.531 25.2947 22.531ZM25.2947 22.8234C26.6882 22.8234 27.8219 23.9572 27.8219 25.3506C27.8219 26.7443 26.6882 27.8781 25.2947 27.8781C23.9013 27.8781 22.7675 26.7443 22.7675 25.3506C22.7675 23.9572 23.9013 22.8234 25.2947 22.8234Z" fill="#D4962A"/>
<path d="M19.6317 25.3508C19.6317 26.908 18.3693 28.1704 16.8121 28.1704C15.2546 28.1704 13.9922 26.908 13.9922 25.3508C13.9922 23.7936 15.2546 22.5312 16.8121 22.5312C18.3693 22.5312 19.6317 23.7936 19.6317 25.3508Z" fill="#D4962A"/>
<path d="M33.7493 22.531C32.1921 22.531 30.9297 23.7934 30.9297 25.3506C30.9297 26.9081 32.1921 28.1705 33.7493 28.1705C35.3065 28.1705 36.5689 26.9081 36.5689 25.3506C36.5689 23.7934 35.3065 22.531 33.7493 22.531ZM33.7493 22.8234C35.1427 22.8234 36.2765 23.9572 36.2765 25.3506C36.2765 26.7443 35.1427 27.8781 33.7493 27.8781C32.3559 27.8781 31.2221 26.7443 31.2221 25.3506C31.2221 23.9572 32.3559 22.8234 33.7493 22.8234Z" fill="#D4962A"/>
</g>
<path d="M6.02686 48.6635H6.9809V45.1485H6.02686V48.6635ZM6.42856 47.3328H8.68815V46.4792H6.42856V47.3328ZM6.42856 46.0022H8.889V45.1485H6.42856V46.0022Z" fill="#2F2F2F"/>
<path d="M9.35107 48.6635H10.3051V45.1485H9.35107V48.6635Z" fill="#2F2F2F"/>
<path d="M10.9175 48.6635H11.8715V45.1485H10.9175V48.6635ZM13.2273 48.6635H14.1813V45.1485H13.2273V48.6635ZM11.2388 45.8465L13.2273 48.6635L13.634 47.6441L11.8715 45.1485L11.2388 45.8465Z" fill="#2F2F2F"/>
<path d="M14.7939 48.6635H15.748V45.1485H14.7939V48.6635ZM15.1957 47.3328H17.5055V46.4792H15.1957V47.3328ZM15.1957 46.0022H17.7063V45.1485H15.1957V46.0022ZM15.1957 48.6635H17.7565V47.8098H15.1957V48.6635Z" fill="#2F2F2F"/>
<path d="M19.6846 48.6635H20.6386V45.1485H19.6846V48.6635ZM20.0863 47.3328H22.3459V46.4792H20.0863V47.3328ZM20.0863 46.0022H22.5467V45.1485H20.0863V46.0022Z" fill="#2F2F2F"/>
<path d="M23.0093 48.6635H23.9633V45.1485H23.0093V48.6635Z" fill="#2F2F2F"/>
<path d="M24.5757 48.6635H25.5297V45.1485H24.5757V48.6635ZM26.8855 48.6635H27.8395V45.1485H26.8855V48.6635ZM24.897 45.8465L26.8855 48.6635L27.2922 47.6441L25.5297 45.1485L24.897 45.8465Z" fill="#2F2F2F"/>
<path d="M28.4521 48.6635H29.4062V45.1485H28.4521V48.6635Z" fill="#2F2F2F"/>
<path d="M31.2787 47.3831C31.3993 47.3999 31.5147 47.4149 31.6252 47.4283C31.7357 47.4417 31.8328 47.4568 31.9164 47.4735C32.0035 47.4903 32.0721 47.5137 32.1223 47.5438C32.1725 47.5706 32.1976 47.6091 32.1976 47.6593C32.1976 47.7363 32.1491 47.7899 32.052 47.82C31.9583 47.8468 31.8143 47.8602 31.6202 47.8602C31.5164 47.8602 31.416 47.8568 31.3189 47.8501C31.2218 47.8434 31.1365 47.83 31.0628 47.8099C30.9892 47.7865 30.9306 47.7547 30.8871 47.7145C30.8436 47.671 30.8218 47.6141 30.8218 47.5438H29.918C29.918 47.7648 29.9548 47.9522 30.0284 48.1062C30.1021 48.2568 30.2075 48.379 30.3448 48.4728C30.4854 48.5665 30.6544 48.6334 30.8519 48.6736C31.0528 48.7171 31.2771 48.7389 31.5248 48.7389C32.0939 48.7389 32.5106 48.6502 32.7751 48.4728C33.0429 48.2953 33.1768 48.0075 33.1768 47.6091C33.1768 47.4082 33.1416 47.2392 33.0714 47.1019C33.0044 46.9647 32.9073 46.8509 32.7801 46.7605C32.6563 46.6701 32.5056 46.5998 32.3282 46.5496C32.1541 46.496 31.9583 46.4542 31.7407 46.4241C31.5767 46.4006 31.4394 46.3822 31.329 46.3688C31.2218 46.3521 31.1365 46.337 31.0729 46.3236C31.0093 46.3069 30.9641 46.2868 30.9373 46.2634C30.9139 46.24 30.9021 46.2098 30.9021 46.173C30.9021 46.1362 30.9139 46.1044 30.9373 46.0776C30.9607 46.0475 30.9959 46.024 31.0427 46.0073C31.0896 45.9872 31.1465 45.9738 31.2135 45.9671C31.2838 45.9571 31.3658 45.9521 31.4595 45.9521C31.5599 45.9521 31.657 45.9554 31.7507 45.9621C31.8445 45.9688 31.9265 45.9839 31.9968 46.0073C32.0671 46.0274 32.1223 46.0592 32.1625 46.1027C32.206 46.1429 32.2278 46.1981 32.2278 46.2684H33.1316C33.1316 46.0475 33.0948 45.8617 33.0211 45.711C32.9475 45.5571 32.842 45.4332 32.7048 45.3395C32.5709 45.2457 32.4052 45.1788 32.2077 45.1386C32.0135 45.0951 31.7943 45.0733 31.5499 45.0733C30.9875 45.0733 30.5758 45.1637 30.3147 45.3445C30.0535 45.5253 29.923 45.8265 29.923 46.2483C29.923 46.4358 29.9548 46.5948 30.0184 46.7253C30.0853 46.8559 30.1791 46.9664 30.2996 47.0568C30.4201 47.1438 30.5624 47.2124 30.7264 47.2626C30.8938 47.3128 31.0779 47.353 31.2787 47.3831Z" fill="#2F2F2F"/>
<path d="M33.6895 48.6635H34.6435V45.1485H33.6895V48.6635ZM35.9993 48.6635H36.9533V45.1485H35.9993V48.6635ZM34.0912 47.3328H36.4512V46.4792H34.0912V47.3328Z" fill="#2F2F2F"/>
<path d="M37.5654 48.6635H38.5195V45.1485H37.5654V48.6635ZM37.9671 47.3328H40.2769V46.4792H37.9671V47.3328ZM37.9671 46.0022H40.4778V45.1485H37.9671V46.0022ZM37.9671 48.6635H40.528V47.8098H37.9671V48.6635Z" fill="#2F2F2F"/>
<path d="M42.3012 47.3831C42.4217 47.3999 42.5372 47.4149 42.6477 47.4283C42.7581 47.4417 42.8552 47.4568 42.9389 47.4735C43.0259 47.4903 43.0946 47.5137 43.1448 47.5438C43.195 47.5706 43.2201 47.6091 43.2201 47.6593C43.2201 47.7363 43.1716 47.7899 43.0745 47.82C42.9808 47.8468 42.8368 47.8602 42.6427 47.8602C42.5389 47.8602 42.4385 47.8568 42.3414 47.8501C42.2443 47.8434 42.1589 47.83 42.0853 47.8099C42.0116 47.7865 41.9531 47.7547 41.9095 47.7145C41.866 47.671 41.8443 47.6141 41.8443 47.5438H40.9404C40.9404 47.7648 40.9773 47.9522 41.0509 48.1062C41.1245 48.2568 41.23 48.379 41.3672 48.4728C41.5078 48.5665 41.6769 48.6334 41.8744 48.6736C42.0752 48.7171 42.2995 48.7389 42.5472 48.7389C43.1163 48.7389 43.5331 48.6502 43.7976 48.4728C44.0654 48.2953 44.1993 48.0075 44.1993 47.6091C44.1993 47.4082 44.1641 47.2392 44.0938 47.1019C44.0269 46.9647 43.9298 46.8509 43.8026 46.7605C43.6787 46.6701 43.5281 46.5998 43.3507 46.5496C43.1766 46.496 42.9808 46.4542 42.7632 46.4241C42.5991 46.4006 42.4619 46.3822 42.3514 46.3688C42.2443 46.3521 42.1589 46.337 42.0953 46.3236C42.0317 46.3069 41.9865 46.2868 41.9598 46.2634C41.9363 46.24 41.9246 46.2098 41.9246 46.173C41.9246 46.1362 41.9363 46.1044 41.9598 46.0776C41.9832 46.0475 42.0183 46.024 42.0652 46.0073C42.1121 45.9872 42.169 45.9738 42.2359 45.9671C42.3062 45.9571 42.3882 45.9521 42.482 45.9521C42.5824 45.9521 42.6795 45.9554 42.7732 45.9621C42.8669 45.9688 42.949 45.9839 43.0193 46.0073C43.0895 46.0274 43.1448 46.0592 43.185 46.1027C43.2285 46.1429 43.2502 46.1981 43.2502 46.2684H44.1541C44.1541 46.0475 44.1172 45.8617 44.0436 45.711C43.97 45.5571 43.8645 45.4332 43.7273 45.3395C43.5934 45.2457 43.4277 45.1788 43.2301 45.1386C43.036 45.0951 42.8167 45.0733 42.5724 45.0733C42.01 45.0733 41.5982 45.1637 41.3371 45.3445C41.076 45.5253 40.9455 45.8265 40.9455 46.2483C40.9455 46.4358 40.9773 46.5948 41.0409 46.7253C41.1078 46.8559 41.2015 46.9664 41.322 47.0568C41.4426 47.1438 41.5848 47.2124 41.7489 47.2626C41.9162 47.3128 42.1004 47.353 42.3012 47.3831Z" fill="#2F2F2F"/>
<mask id="mask1_372_2" style="mask-type:luminance" maskUnits="userSpaceOnUse" x="0" y="0" width="51" height="56">
<path d="M0 -3.8147e-06H50.7342V56H0V-3.8147e-06Z" fill="white"/>
</mask>
<g mask="url(#mask1_372_2)">
<path d="M14.5856 39.5592H10.9442V37.6084H16.7964V40.1704C16.7964 40.6213 16.7247 41.0223 16.5817 41.3735C16.4387 41.7247 16.2437 42.0323 15.9966 42.2967C15.7495 42.5613 15.4588 42.7824 15.1251 42.9599C14.7915 43.1377 14.4338 43.2831 14.0522 43.3956C13.6706 43.5085 13.272 43.5907 12.8558 43.6427C12.4397 43.6948 12.028 43.7208 11.6203 43.7208C10.5714 43.7208 9.66981 43.6316 8.91534 43.4541C8.16116 43.2766 7.54559 42.9883 7.06863 42.5894C6.59197 42.1908 6.24076 41.6683 6.0153 41.0223C5.78983 40.3766 5.67725 39.5853 5.67725 38.6489C5.67725 37.7041 5.78778 36.9083 6.00886 36.2624C6.22994 35.6167 6.57472 35.0941 7.04261 34.6955C7.51079 34.2966 8.10443 34.0106 8.82439 33.8369C9.54406 33.6638 10.4021 33.577 11.3992 33.577C11.9107 33.577 12.3789 33.5986 12.8038 33.6419C13.2284 33.6855 13.6384 33.7548 14.0329 33.8501C14.4274 33.9454 14.8175 34.0712 15.2032 34.227C15.5889 34.3832 15.9901 34.5742 16.4063 34.7996L15.0017 36.503C14.5856 36.2255 14.0934 36.0044 13.5255 35.8398C12.9576 35.6752 12.2923 35.5927 11.5294 35.5927C10.9311 35.5927 10.4129 35.6427 9.9754 35.7421C9.53734 35.8421 9.1797 36.0088 8.90247 36.2431C8.62466 36.477 8.41908 36.789 8.28456 37.1794C8.15034 37.5695 8.08308 38.0594 8.08308 38.6489C8.08308 39.2297 8.15034 39.7174 8.28456 40.1119C8.41908 40.5064 8.62466 40.8208 8.90247 41.0547C9.1797 41.289 9.53734 41.4559 9.9754 41.5554C10.4129 41.6551 10.9311 41.7051 11.5294 41.7051C11.9107 41.7051 12.2836 41.6814 12.6479 41.6335C13.012 41.5861 13.3372 41.5036 13.6232 41.3863C13.9092 41.2694 14.1411 41.1179 14.3189 40.931C14.4964 40.7448 14.5856 40.5131 14.5856 40.2353V39.5592Z" fill="#2F2F2F"/>
<path d="M25.4712 37.7256C25.7484 37.7256 25.9695 37.6498 26.1344 37.498C26.299 37.3463 26.3815 37.0883 26.3815 36.7243C26.3815 36.3599 26.299 36.1023 26.1344 35.9505C25.9695 35.7987 25.7484 35.7227 25.4712 35.7227H20.3343V37.7256H25.4712ZM18.1235 33.7722H25.6013C26.1648 33.7722 26.6391 33.8239 27.0251 33.928C27.4109 34.0321 27.7252 34.2012 27.9679 34.4354C28.2107 34.6694 28.3861 34.9749 28.4946 35.3522C28.6031 35.7294 28.6572 36.1868 28.6572 36.7243C28.6572 37.253 28.6031 37.706 28.4946 38.0832C28.3861 38.4604 28.2107 38.766 27.9679 39C27.7252 39.2339 27.4109 39.4053 27.0251 39.5138C26.6391 39.6223 26.1648 39.6764 25.6013 39.6764H24.5608L29.3076 43.5256H25.7963L21.4915 39.6764H20.3343V43.5256H18.1235V33.7722Z" fill="#2F2F2F"/>
<path d="M30.2432 33.772H32.4539V43.5258H30.2432V33.772Z" fill="#2F2F2F"/>
<path d="M41.0117 41.5749C41.2111 41.5749 41.4103 41.5144 41.61 41.3928C41.8092 41.2714 41.989 41.0919 42.1495 40.8532C42.3101 40.6149 42.4399 40.3114 42.5397 39.9429C42.6394 39.5744 42.6894 39.1431 42.6894 38.6489C42.6894 38.1547 42.6394 37.7236 42.5397 37.3549C42.4399 36.9864 42.3101 36.6832 42.1495 36.4445C41.989 36.2062 41.8092 36.0264 41.61 35.905C41.4103 35.7836 41.2111 35.7228 41.0117 35.7228H36.2521V41.5749H41.0117ZM34.041 33.772H41.1287C41.6922 33.772 42.2083 33.8589 42.6762 34.0323C43.1444 34.2057 43.5477 34.4852 43.8857 34.871C44.2241 35.257 44.4884 35.7597 44.6791 36.3796C44.8697 36.9996 44.9651 37.7561 44.9651 38.6489C44.9651 39.5332 44.8697 40.2856 44.6791 40.9053C44.4884 41.5252 44.2241 42.0303 43.8857 42.4204C43.5477 42.8105 43.1444 43.0924 42.6762 43.2655C42.2083 43.4392 41.6922 43.5258 41.1287 43.5258H34.041V33.772Z" fill="#2F2F2F"/>
</g>
</svg>
