<svg width="70" height="59" viewBox="0 0 70 59" fill="none" xmlns="http://www.w3.org/2000/svg">
<path d="M41.0815 8.27319L46.8639 7.57941V0.619385H41.7698V4.91135L41.0815 8.27319Z" fill="#FF6E1F"/>
<path d="M46.7638 25.0212C46.5905 26.4429 46.1559 27.8202 45.4819 29.0838C45.4305 29.1811 45.3776 29.2771 45.322 29.3716C44.2098 31.3181 42.5919 32.8331 40.4684 33.9166C38.3449 35.0002 35.8376 35.5382 32.9466 35.5308C29.7785 35.5308 27.1619 34.8769 25.0968 33.569C23.0317 32.2612 21.6413 30.3907 20.9258 27.9576L26.4343 27.3028C26.9154 28.5893 27.7032 29.5361 28.7979 30.1432C29.8879 30.7508 31.9386 31.0553 33.7058 31.0553C36.3205 31.0553 38.3458 30.3268 39.7815 28.8697C40.2446 28.3978 40.6345 27.8594 40.9383 27.2722C41.3091 27.1869 41.6724 27.0942 42.0283 26.9941L42.0561 26.9858L42.3509 26.8968C43.8868 26.437 45.3668 25.808 46.7638 25.0212Z" fill="#FF6E1F"/>
<path d="M46.8656 11.8198V21.5619V22.4921C45.3974 23.5209 43.679 24.2995 41.7367 24.9043L41.4586 24.9877C39.4783 25.5432 37.4339 25.8377 35.3773 25.8636H34.9518C30.3609 25.8636 26.7748 24.7333 24.1934 22.4726C21.612 20.2119 20.3213 17.0739 20.3213 13.0586C20.3213 10.442 20.8774 8.15862 21.9897 6.20844C23.102 4.25826 24.7203 2.74325 26.8448 1.66343C30.5987 -0.242726 35.8819 -0.883671 39.4203 1.76353C39.6131 1.90813 39.7985 2.05921 39.9765 2.21678C40.0919 2.32245 40.2059 2.43089 40.3143 2.54212C40.5856 2.81705 40.8379 3.11017 41.0693 3.41942C41.1638 3.54177 41.2528 3.66551 41.339 3.79203C41.4252 3.91855 41.51 4.04924 41.5921 4.17994C42.3261 5.35338 42.8545 6.66725 43.3494 7.97973H43.3397L40.8774 8.2717C40.5595 7.37096 40.0082 6.5707 39.2799 5.95262C39.043 5.75622 38.7884 5.58215 38.5194 5.43263C37.4275 4.82829 35.9959 4.52613 34.2247 4.52613C31.608 4.52613 29.5828 5.25513 28.1489 6.71313C26.715 8.17113 25.9976 10.2539 25.9966 12.9613C25.9966 15.742 26.7539 17.8419 28.2685 19.2609C29.783 20.68 32.0075 21.3918 34.9421 21.3965C37.7227 21.3965 39.9936 20.9604 41.7547 20.0882V16.0882H34.9727V11.8198H46.8656Z" fill="#FF6E1F"/>
<path d="M10.217 54.9445C9.01925 55.7191 7.5939 56.1063 5.94097 56.1063C4.24012 56.1063 2.92257 55.7231 1.98831 54.9565C1.05404 54.1819 0.58691 53.084 0.58691 51.6626C0.58691 50.6804 0.798517 49.854 1.22173 49.1832C1.65293 48.5045 2.24783 47.9934 3.00642 47.6501C3.77299 47.2987 4.65136 47.123 5.64152 47.123C6.52788 47.123 7.27449 47.2468 7.88136 47.4943C8.48823 47.7419 8.97134 48.0773 9.33067 48.5005C9.69 48.9237 9.93754 49.3988 10.0733 49.9258L7.4861 50.1654C7.35833 49.806 7.14273 49.5465 6.8393 49.3868C6.53586 49.2191 6.12063 49.1353 5.59361 49.1353C4.80308 49.1353 4.20818 49.3469 3.80893 49.7701C3.41765 50.1933 3.22202 50.8042 3.22202 51.6027C3.22202 52.4571 3.44161 53.088 3.88079 53.4952C4.31998 53.8945 5.00271 54.0941 5.92899 54.0941C6.67959 54.0941 7.31841 53.9983 7.84543 53.8066V52.8125H5.89305V50.9918H10.217V54.9445ZM11.3813 51.2673H16.3401V53.3395H11.3813V51.2673ZM27.049 54.9445C25.8513 55.7191 24.4259 56.1063 22.773 56.1063C21.0721 56.1063 19.7546 55.7231 18.8203 54.9565C17.8861 54.1819 17.4189 53.084 17.4189 51.6626C17.4189 50.6804 17.6305 49.854 18.0537 49.1832C18.4849 48.5045 19.0798 47.9934 19.8384 47.6501C20.605 47.2987 21.4834 47.123 22.4735 47.123C23.3599 47.123 24.1065 47.2468 24.7134 47.4943C25.3203 47.7419 25.8034 48.0773 26.1627 48.5005C26.522 48.9237 26.7696 49.3988 26.9053 49.9258L24.3181 50.1654C24.1904 49.806 23.9748 49.5465 23.6713 49.3868C23.3679 49.2191 22.9526 49.1353 22.4256 49.1353C21.6351 49.1353 21.0402 49.3469 20.6409 49.7701C20.2497 50.1933 20.054 50.8042 20.054 51.6027C20.054 52.4571 20.2736 53.088 20.7128 53.4952C21.152 53.8945 21.8347 54.0941 22.761 54.0941C23.5116 54.0941 24.1504 53.9983 24.6774 53.8066V52.8125H22.7251V50.9918H27.049V54.9445ZM28.6804 47.3386H33.0763C35.6395 47.3386 36.9211 48.2849 36.9211 50.1774C36.9211 50.7842 36.7934 51.2793 36.5379 51.6626C36.2823 52.0379 35.907 52.3373 35.4119 52.5609L37.5081 55.8907H34.7412L33.0523 53.052H31.1V55.8907H28.6804V47.3386ZM32.9206 51.2074C33.4476 51.2074 33.8309 51.1316 34.0704 50.9799C34.318 50.8202 34.4417 50.5567 34.4417 50.1893C34.4417 49.822 34.326 49.5625 34.0944 49.4108C33.8628 49.2591 33.4795 49.1832 32.9445 49.1832H31.1V51.2074H32.9206ZM43.1898 56.1063C42.1358 56.1063 41.2295 55.9267 40.4709 55.5673C39.7123 55.208 39.1254 54.693 38.7101 54.0222C38.3029 53.3515 38.0993 52.549 38.0993 51.6147C38.0993 50.6804 38.3069 49.8779 38.7221 49.2072C39.1373 48.5364 39.7282 48.0214 40.4948 47.662C41.2614 47.3027 42.1757 47.123 43.2377 47.123C44.2918 47.123 45.1981 47.3027 45.9567 47.662C46.7153 48.0214 47.2982 48.5364 47.7054 49.2072C48.1207 49.8779 48.3283 50.6804 48.3283 51.6147C48.3283 52.549 48.1207 53.3515 47.7054 54.0222C47.2902 54.693 46.6993 55.208 45.9327 55.5673C45.1661 55.9267 44.2518 56.1063 43.1898 56.1063ZM45.6453 51.6147C45.6453 50.8481 45.4297 50.2572 44.9985 49.842C44.5752 49.4188 43.9803 49.2072 43.2138 49.2072C42.4472 49.2072 41.8483 49.4188 41.4171 49.842C40.9939 50.2652 40.7823 50.8561 40.7823 51.6147C40.7823 52.3813 40.9939 52.9762 41.4171 53.3994C41.8483 53.8146 42.4472 54.0222 43.2138 54.0222C43.9803 54.0222 44.5752 53.8106 44.9985 53.3874C45.4297 52.9642 45.6453 52.3733 45.6453 51.6147ZM52.3785 52.3453C52.3785 52.9203 52.5223 53.3435 52.8097 53.615C53.1052 53.8865 53.5683 54.0222 54.1991 54.0222C54.838 54.0222 55.3011 53.8865 55.5886 53.615C55.884 53.3435 56.0317 52.9203 56.0317 52.3453V47.3386H58.6189V52.1417C58.6189 53.5471 58.2396 54.5612 57.481 55.1841C56.7225 55.7989 55.6285 56.1063 54.1991 56.1063C52.7778 56.1063 51.6878 55.7989 50.9292 55.1841C50.1706 54.5612 49.7913 53.5471 49.7913 52.1417V47.3386H52.3785V52.3453ZM60.4613 47.3386H64.7134C67.2766 47.3386 68.5582 48.3248 68.5582 50.2971C68.5582 51.3113 68.2268 52.0619 67.5641 52.549C66.9093 53.0281 65.9111 53.2676 64.5696 53.2676H62.9646V55.8907H60.4613V47.3386ZM64.5217 51.3512C65.0408 51.3512 65.424 51.2713 65.6716 51.1116C65.9191 50.9519 66.0429 50.6764 66.0429 50.2852C66.0429 49.9178 65.9231 49.6543 65.6836 49.4946C65.444 49.3349 65.0647 49.2551 64.5457 49.2551H62.9646V51.3512H64.5217Z" fill="#3A3A3A"/>
</svg>
