<svg width="126" height="108" viewBox="0 0 126 108" fill="none" xmlns="http://www.w3.org/2000/svg">
<path d="M74.7085 15.0447L85.2241 13.7831V1.12598H75.96V8.93111L74.7085 15.0447Z" fill="#FF6E1F"/>
<path d="M85.0417 45.5029C84.7266 48.0882 83.9363 50.5929 82.7106 52.8909C82.617 53.0679 82.5209 53.2423 82.4198 53.4143C80.3971 56.954 77.4549 59.7091 73.5932 61.6796C69.7315 63.65 65.172 64.6285 59.9147 64.615C54.1533 64.615 49.3949 63.4258 45.6394 61.0475C41.8839 58.6691 39.3555 55.2676 38.0542 50.8429L48.0717 49.652C48.9465 51.9916 50.3792 53.7135 52.3699 54.8175C54.3522 55.9224 58.0816 56.4761 61.2951 56.4761C66.0502 56.4761 69.7332 55.1513 72.3442 52.5015C73.1863 51.6434 73.8954 50.6642 74.4478 49.5964C75.1221 49.4413 75.7828 49.2728 76.4301 49.0907L76.4806 49.0755L77.0166 48.9137C79.8098 48.0776 82.5013 46.9336 85.0417 45.5029Z" fill="#FF6E1F"/>
<path d="M85.2271 21.4949V39.2113V40.9028C82.5571 42.7738 79.432 44.1897 75.8998 45.2895L75.3942 45.4412C71.7928 46.4514 68.075 46.9869 64.335 47.0341H63.5613C55.2126 47.0341 48.691 44.9785 43.9966 40.8674C39.3023 36.7562 36.9551 31.0497 36.9551 23.7477C36.9551 18.9892 37.9664 14.8368 39.9891 11.2903C42.0119 7.74382 44.9549 4.98873 48.8183 3.02501C55.6449 -0.441408 65.2528 -1.60699 71.6875 3.20706C72.0381 3.47001 72.3753 3.74476 72.6989 4.03131C72.9087 4.22347 73.1161 4.42068 73.3133 4.62295C73.8067 5.12293 74.2654 5.65597 74.6862 6.21837C74.8581 6.44086 75.02 6.66589 75.1767 6.89597C75.3335 7.12606 75.4877 7.36373 75.6369 7.60139C76.9719 9.73535 77.9327 12.1247 78.8328 14.5115H78.8151L74.3373 15.0424C73.7591 13.4044 72.7566 11.9491 71.4322 10.8251C71.0013 10.4679 70.5383 10.1514 70.0491 9.87947C68.0635 8.78046 65.4601 8.23096 62.239 8.23096C57.4805 8.23096 53.7975 9.55668 51.1899 12.2081C48.5823 14.8596 47.2776 18.6471 47.2759 23.5707C47.2759 28.6275 48.6531 32.4462 51.4073 35.0268C54.1616 37.6075 58.207 38.902 63.5436 38.9104C68.6004 38.9104 72.7301 38.1173 75.9327 36.5312V29.257H63.5992V21.4949H85.2271Z" fill="#FF6E1F"/>
<path d="M18.5801 100.097C16.4019 101.505 13.8098 102.209 10.8039 102.209C7.71085 102.209 5.31482 101.512 3.61582 100.118C1.91682 98.7098 1.06732 96.7131 1.06732 94.1283C1.06732 92.3422 1.45214 90.8392 2.22177 89.6194C3.00592 88.3851 4.08777 87.4557 5.4673 86.8313C6.86135 86.1924 8.4587 85.8729 10.2593 85.8729C11.8712 85.8729 13.229 86.098 14.3326 86.5482C15.4362 86.9983 16.3148 87.6082 16.9682 88.3779C17.6217 89.1475 18.0718 90.0115 18.3187 90.9699L13.6138 91.4056C13.3814 90.7521 12.9894 90.2802 12.4376 89.9897C11.8857 89.6848 11.1306 89.5323 10.1722 89.5323C8.73461 89.5323 7.65276 89.9171 6.92669 90.6868C6.21515 91.4564 5.85937 92.5673 5.85937 94.0194C5.85937 95.5732 6.25871 96.7204 7.05739 97.461C7.85606 98.187 9.09764 98.5501 10.7821 98.5501C12.1471 98.5501 13.3088 98.3758 14.2672 98.0273V96.2194H10.7168V92.9085H18.5801V100.097ZM20.6974 93.4095H29.7152V97.1778H20.6974V93.4095ZM49.1898 100.097C47.0116 101.505 44.4196 102.209 41.4136 102.209C38.3206 102.209 35.9246 101.512 34.2256 100.118C32.5266 98.7098 31.6771 96.7131 31.6771 94.1283C31.6771 92.3422 32.0619 90.8392 32.8315 89.6194C33.6157 88.3851 34.6975 87.4557 36.077 86.8313C37.4711 86.1924 39.0684 85.8729 40.8691 85.8729C42.481 85.8729 43.8387 86.098 44.9423 86.5482C46.046 86.9983 46.9245 87.6082 47.578 88.3779C48.2314 89.1475 48.6816 90.0115 48.9285 90.9699L44.2235 91.4056C43.9912 90.7521 43.5991 90.2802 43.0473 89.9897C42.4955 89.6848 41.7404 89.5323 40.782 89.5323C39.3444 89.5323 38.2625 89.9171 37.5364 90.6868C36.8249 91.4564 36.4691 92.5673 36.4691 94.0194C36.4691 95.5732 36.8685 96.7204 37.6671 97.461C38.4658 98.187 39.7074 98.5501 41.3919 98.5501C42.7569 98.5501 43.9186 98.3758 44.877 98.0273V96.2194H41.3265V92.9085H49.1898V100.097ZM52.1566 86.265H60.1506C64.812 86.265 67.1427 87.9858 67.1427 91.4273C67.1427 92.531 66.9103 93.4313 66.4457 94.1283C65.981 94.8108 65.2985 95.3554 64.3981 95.762L68.21 101.817H63.1783L60.1071 96.655H56.5566V101.817H52.1566V86.265ZM59.8675 93.3006C60.8259 93.3006 61.5229 93.1626 61.9585 92.8867C62.4087 92.5963 62.6338 92.1171 62.6338 91.4491C62.6338 90.7811 62.4232 90.3092 62.0021 90.0333C61.581 89.7574 60.884 89.6194 59.911 89.6194H56.5566V93.3006H59.8675ZM78.5425 102.209C76.6257 102.209 74.9775 101.883 73.598 101.229C72.2185 100.576 71.1511 99.6392 70.396 98.4194C69.6554 97.1996 69.2851 95.7402 69.2851 94.0412C69.2851 92.3422 69.6627 90.8828 70.4178 89.663C71.1729 88.4432 72.2475 87.5066 73.6416 86.8531C75.0356 86.1996 76.6983 85.8729 78.6297 85.8729C80.5465 85.8729 82.1946 86.1996 83.5742 86.8531C84.9537 87.5066 86.0138 88.4432 86.7544 89.663C87.5095 90.8828 87.887 92.3422 87.887 94.0412C87.887 95.7402 87.5095 97.1996 86.7544 98.4194C85.9992 99.6392 84.9247 100.576 83.5306 101.229C82.1366 101.883 80.4739 102.209 78.5425 102.209ZM83.0078 94.0412C83.0078 92.6471 82.6158 91.5726 81.8316 90.8174C81.062 90.0478 79.9801 89.663 78.5861 89.663C77.192 89.663 76.1029 90.0478 75.3188 90.8174C74.5491 91.5871 74.1643 92.6617 74.1643 94.0412C74.1643 95.4352 74.5491 96.5171 75.3188 97.2867C76.1029 98.0418 77.192 98.4194 78.5861 98.4194C79.9801 98.4194 81.062 98.0346 81.8316 97.2649C82.6158 96.4953 83.0078 95.4207 83.0078 94.0412ZM95.2526 95.3699C95.2526 96.4154 95.514 97.1851 96.0367 97.6788C96.574 98.1725 97.4163 98.4194 98.5635 98.4194C99.7252 98.4194 100.567 98.1725 101.09 97.6788C101.627 97.1851 101.896 96.4154 101.896 95.3699V86.265H106.601V94.9996C106.601 97.5554 105.911 99.3996 104.532 100.532C103.152 101.65 101.163 102.209 98.5635 102.209C95.9787 102.209 93.9965 101.65 92.617 100.532C91.2374 99.3996 90.5477 97.5554 90.5477 94.9996V86.265H95.2526V95.3699ZM109.951 86.265H117.684C122.345 86.265 124.676 88.0584 124.676 91.6452C124.676 93.4894 124.073 94.8544 122.868 95.7402C121.677 96.6115 119.862 97.0471 117.423 97.0471H114.504V101.817H109.951V86.265ZM117.336 93.562C118.279 93.562 118.976 93.4168 119.427 93.1263C119.877 92.8359 120.102 92.3349 120.102 91.6234C120.102 90.9554 119.884 90.4762 119.448 90.1858C119.013 89.8953 118.323 89.7501 117.379 89.7501H114.504V93.562H117.336Z" fill="white"/>
</svg>
